<svg width="200" height="201" viewBox="0 0 200 201" fill="none" xmlns="http://www.w3.org/2000/svg">
<g clip-path="url(#clip0_179_37)">
<rect y="0.34375" width="200" height="200" fill="#6366F1"/>
<g filter="url(#filter0_d_179_37)">
<path d="M108.669 24.0491C109.597 24.1455 110.785 24.7025 112.125 26.3583C113.48 28.0311 114.775 30.5861 115.818 34.0067C117.897 40.8313 118.731 50.3273 117.643 60.8171C116.554 71.3069 113.787 80.4291 110.35 86.6811C108.628 89.8148 106.835 92.0492 105.166 93.4081C103.514 94.7533 102.237 95.0545 101.309 94.9581C100.38 94.8618 99.1924 94.3048 97.8518 92.6489C96.4975 90.9762 95.2018 88.4212 94.1596 85.0006C92.0805 78.176 91.2457 68.68 92.3345 58.1902C93.4233 47.7004 96.1906 38.5782 99.6271 32.3262C101.35 29.1925 103.142 26.9581 104.811 25.5992C106.464 24.254 107.74 23.9528 108.669 24.0491Z" fill="white" stroke="white" stroke-width="8"/>
<path fill-rule="evenodd" clip-rule="evenodd" d="M105.261 97.3085C104.062 98.1205 102.426 96.7972 101.249 95.5891C98.546 92.8117 93.7456 72.2804 95.5087 57.1044C97.9115 36.4258 105.82 25.2159 110.521 25.8695C115.352 33.5624 112.209 52.52 108.927 72.3197C107.526 80.7667 106.104 89.3644 105.261 97.3085Z" fill="url(#paint0_linear_179_37)"/>
<path d="M142.13 31.5762C142.958 32.0068 143.858 32.9613 144.497 34.9939C145.142 37.0473 145.408 39.8996 145.12 43.4639C144.547 50.5751 141.834 59.7136 136.967 69.0696C132.1 78.4255 126.175 85.8928 120.681 90.4449C117.928 92.7265 115.439 94.1458 113.388 94.7964C111.357 95.4405 110.059 95.2514 109.231 94.8208C108.403 94.3901 107.503 93.4356 106.864 91.403C106.219 89.3496 105.953 86.4973 106.241 82.933C106.815 75.8219 109.527 66.6833 114.394 57.3274C119.261 47.9714 125.187 40.5041 130.68 35.9521C133.433 33.6705 135.922 32.2511 137.973 31.6005C140.004 30.9564 141.302 31.1455 142.13 31.5762Z" fill="white" stroke="white" stroke-width="8"/>
<path fill-rule="evenodd" clip-rule="evenodd" d="M132.877 114.822C134.145 104.991 132.877 97.786 126.457 87.7962C98.7377 65.4467 52.1162 106.856 52.1162 128.652C53.0355 153.466 121.397 165.816 132.877 114.822ZM87.2186 121.301C90.8918 121.301 93.8694 119.801 93.8694 116.128C93.8694 112.455 90.8918 109.477 87.2186 109.477C83.5455 109.477 80.5679 112.455 80.5679 116.128C80.5679 119.801 83.5455 121.301 87.2186 121.301Z" fill="white"/>
<path d="M159.146 130.211C145.933 129.26 136.281 136.558 126.685 143.813C115.953 151.928 105.29 159.99 89.7949 156.391C98.9483 167.286 120.829 169.195 136.395 161.069C146.243 155.941 150.475 147.213 154.402 139.111C155.925 135.968 157.403 132.919 159.146 130.211Z" fill="white"/>
<path d="M83.9522 158.219C89.7027 157.866 93.2386 162.138 96.7538 166.385C100.685 171.135 104.592 175.854 111.541 174.033C106.707 180.078 97.1567 180.851 91.1514 176.026C87.3509 172.982 86.2605 167.976 85.2487 163.329C84.8561 161.526 84.4752 159.777 83.9522 158.219Z" fill="white"/>
<path fill-rule="evenodd" clip-rule="evenodd" d="M114.579 97.3745C113.177 97.7404 112.076 95.9474 111.369 94.4164C109.746 90.8969 112.062 69.9395 118.782 56.2185C127.939 37.5227 139.13 29.5891 143.345 31.7718C145.336 40.6352 136.055 57.4617 126.362 75.0357C122.227 82.5331 118.021 90.1654 114.579 97.3745Z" fill="url(#paint1_linear_179_37)"/>
<path fill-rule="evenodd" clip-rule="evenodd" d="M50.2247 54.6632C48.9275 52.6982 51.5006 50.4971 53.2409 52.0831L61.169 59.3082C60.4299 60.2818 58.0806 61.9446 54.7027 61.4465L50.2247 54.6632ZM58.0806 66.5633C59.7874 66.554 63.7554 65.9654 65.9724 63.6857L77.4417 74.138C72.9929 78.7568 68.7436 79.1756 66.1302 78.7568L58.0806 66.5633ZM70.7648 85.7773L77.5859 96.1099C78.2486 97.1137 79.641 97.3097 80.5551 96.5279L89.9009 88.5335C90.8149 87.7516 90.837 86.3456 89.948 85.5354L82.9693 79.1756C82.0998 80.9482 78.4414 84.7502 70.7648 85.7773Z" fill="white"/>
</g>
</g>
<defs>
<filter id="filter0_d_179_37" x="25.8721" y="12.0317" width="157.274" height="207.14" filterUnits="userSpaceOnUse" color-interpolation-filters="sRGB">
<feFlood flood-opacity="0" result="BackgroundImageFix"/>
<feColorMatrix in="SourceAlpha" type="matrix" values="0 0 0 0 0 0 0 0 0 0 0 0 0 0 0 0 0 0 127 0" result="hardAlpha"/>
<feOffset dy="16"/>
<feGaussianBlur stdDeviation="12"/>
<feComposite in2="hardAlpha" operator="out"/>
<feColorMatrix type="matrix" values="0 0 0 0 0 0 0 0 0 0 0 0 0 0 0 0 0 0 0.25 0"/>
<feBlend mode="normal" in2="BackgroundImageFix" result="effect1_dropShadow_179_37"/>
<feBlend mode="normal" in="SourceGraphic" in2="effect1_dropShadow_179_37" result="shape"/>
</filter>
<linearGradient id="paint0_linear_179_37" x1="117.239" y1="136.814" x2="93.5751" y2="4.6306" gradientUnits="userSpaceOnUse">
<stop stop-color="#CDCED8"/>
<stop offset="1" stop-color="#8697FF" stop-opacity="0"/>
</linearGradient>
<linearGradient id="paint1_linear_179_37" x1="112.707" y1="138.614" x2="134.446" y2="6.09989" gradientUnits="userSpaceOnUse">
<stop stop-color="#CDCED8"/>
<stop offset="1" stop-color="#8697FF" stop-opacity="0"/>
</linearGradient>
<clipPath id="clip0_179_37">
<rect width="200" height="200" fill="white" transform="translate(0 0.34375)"/>
</clipPath>
</defs>
</svg>
