<svg width="1133" height="499" viewBox="0 0 1133 499" fill="none" xmlns="http://www.w3.org/2000/svg">
<g clip-path="url(#clip0_242_31)">
<path d="M401.8 363.044C396.6 363.044 392.7 362.144 390.1 360.344C387.5 358.544 385.8 356.144 385 353.144C384.4 350.144 384.1 346.844 384.1 343.244V172.844C384.1 169.244 384.5 166.044 385.3 163.244C386.1 160.244 387.7 157.844 390.1 156.044C392.7 154.244 396.7 153.344 402.1 153.344H481.3C492.9 153.344 503.1 156.044 511.9 161.444C520.9 166.844 527.9 174.044 532.9 183.044C537.9 191.844 540.4 201.544 540.4 212.144C540.4 216.944 539.8 221.744 538.6 226.544C537.6 231.144 535.9 235.444 533.5 239.444C531.3 243.444 528.5 247.044 525.1 250.244C529.7 253.844 533.7 258.244 537.1 263.444C540.5 268.644 543 274.344 544.6 280.544C546.4 286.544 547.3 292.844 547.3 299.444C547.1 308.444 545.4 316.844 542.2 324.644C539 332.244 534.5 338.944 528.7 344.744C523.1 350.544 516.5 355.044 508.9 358.244C501.3 361.444 493.1 363.044 484.3 363.044H401.8ZM420.4 327.644H481.3C487.1 327.644 492.2 326.544 496.6 324.344C501.2 322.144 504.8 318.744 507.4 314.144C510 309.544 511.3 303.544 511.3 296.144C511.3 290.344 510.5 285.744 508.9 282.344C507.5 278.744 505.5 275.944 502.9 273.944C500.5 271.944 497.7 270.544 494.5 269.744C491.5 268.944 488.5 268.544 485.5 268.544C482.5 268.344 479.7 268.244 477.1 268.244H463.3C458.1 268.244 454.3 267.044 451.9 264.644C449.5 262.044 448.3 257.844 448.3 252.044C448.3 246.644 449.6 242.844 452.2 240.644C454.8 238.244 458.8 237.044 464.2 237.044H477.7C480.3 237.044 483.1 236.944 486.1 236.744C489.3 236.544 492.3 235.844 495.1 234.644C497.9 233.244 500.2 231.044 502 228.044C503.8 225.044 504.7 220.644 504.7 214.844C504.7 205.844 502.3 199.344 497.5 195.344C492.9 191.144 484.9 189.044 473.5 189.044H420.4V327.644ZM626.472 363.044C617.272 363.044 608.772 361.444 600.972 358.244C593.372 354.844 586.672 350.044 580.872 343.844C575.072 337.644 570.572 330.244 567.372 321.644C564.172 313.044 562.572 303.544 562.572 293.144V233.444C562.572 230.044 562.872 227.044 563.472 224.444C564.072 221.644 565.672 219.444 568.272 217.844C570.872 216.244 574.872 215.444 580.272 215.444C586.072 215.444 590.172 216.244 592.572 217.844C595.172 219.444 596.772 221.644 597.372 224.444C597.972 227.244 598.272 230.344 598.272 233.744V293.144C598.272 300.344 599.472 306.544 601.872 311.744C604.472 316.944 608.172 321.044 612.972 324.044C617.772 326.844 623.672 328.244 630.672 328.244C637.872 328.244 643.972 326.844 648.972 324.044C654.172 321.044 658.172 316.944 660.972 311.744C663.772 306.344 665.172 300.144 665.172 293.144V233.144C665.172 229.744 665.472 226.744 666.072 224.144C666.672 221.344 668.272 219.244 670.872 217.844C673.472 216.244 677.572 215.444 683.172 215.444C688.772 215.444 692.772 216.244 695.172 217.844C697.572 219.444 699.072 221.644 699.672 224.444C700.472 227.244 700.872 230.244 700.872 233.444V345.944C700.872 348.944 700.472 351.744 699.672 354.344C699.072 356.944 697.472 359.044 694.872 360.644C692.472 362.244 688.472 363.044 682.872 363.044C678.872 363.044 675.672 362.544 673.272 361.544C671.072 360.744 669.372 359.644 668.172 358.244C667.172 356.644 666.472 355.044 666.072 353.444C665.872 351.844 665.772 350.244 665.772 348.644L668.172 340.544C666.972 342.344 665.172 344.544 662.772 347.144C660.372 349.544 657.372 352.044 653.772 354.644C650.372 357.044 646.372 359.044 641.772 360.644C637.172 362.244 632.072 363.044 626.472 363.044ZM739.206 363.044C733.806 363.044 729.806 362.144 727.206 360.344C724.806 358.744 723.306 356.644 722.706 354.044C722.106 351.244 721.806 348.144 721.806 344.744V232.544C721.806 229.344 722.106 226.444 722.706 223.844C723.306 221.244 724.906 219.244 727.506 217.844C730.106 216.244 734.106 215.444 739.506 215.444C744.306 215.444 747.906 216.044 750.306 217.244C752.706 218.444 754.306 219.944 755.106 221.744C755.906 223.544 756.306 225.344 756.306 227.144C756.506 228.944 756.706 230.344 756.906 231.344L755.706 240.944C756.906 237.744 758.906 234.644 761.706 231.644C764.506 228.644 767.906 225.944 771.906 223.544C775.906 220.944 780.206 218.944 784.806 217.544C789.606 215.944 794.506 215.144 799.506 215.144C808.906 215.144 817.306 216.844 824.706 220.244C832.106 223.644 838.406 228.444 843.606 234.644C849.006 240.844 853.106 248.244 855.906 256.844C858.706 265.244 860.106 274.744 860.106 285.344V345.044C860.106 348.444 859.706 351.544 858.906 354.344C858.306 356.944 856.806 359.044 854.406 360.644C852.006 362.244 847.906 363.044 842.106 363.044C836.506 363.044 832.406 362.144 829.806 360.344C827.206 358.744 825.606 356.644 825.006 354.044C824.406 351.244 824.106 348.144 824.106 344.744V285.044C824.106 277.844 822.806 271.644 820.206 266.444C817.806 261.244 814.206 257.244 809.406 254.444C804.806 251.644 798.906 250.244 791.706 250.244C784.706 250.244 778.606 251.744 773.406 254.744C768.206 257.544 764.206 261.544 761.406 266.744C758.606 271.944 757.206 278.044 757.206 285.044V345.044C757.206 348.444 756.906 351.544 756.306 354.344C755.706 356.944 754.106 359.044 751.506 360.644C749.106 362.244 745.006 363.044 739.206 363.044ZM898.077 363.044C892.677 363.044 888.677 362.144 886.077 360.344C883.677 358.744 882.177 356.644 881.577 354.044C880.977 351.244 880.677 348.144 880.677 344.744V232.544C880.677 229.344 880.977 226.444 881.577 223.844C882.177 221.244 883.777 219.244 886.377 217.844C888.977 216.244 892.977 215.444 898.377 215.444C903.177 215.444 906.777 216.044 909.177 217.244C911.577 218.444 913.177 219.944 913.977 221.744C914.777 223.544 915.177 225.344 915.177 227.144C915.377 228.944 915.577 230.344 915.777 231.344L914.577 240.944C915.777 237.744 917.777 234.644 920.577 231.644C923.377 228.644 926.777 225.944 930.777 223.544C934.777 220.944 939.077 218.944 943.677 217.544C948.477 215.944 953.377 215.144 958.377 215.144C967.777 215.144 976.177 216.844 983.577 220.244C990.977 223.644 997.277 228.444 1002.48 234.644C1007.88 240.844 1011.98 248.244 1014.78 256.844C1017.58 265.244 1018.98 274.744 1018.98 285.344V345.044C1018.98 348.444 1018.58 351.544 1017.78 354.344C1017.18 356.944 1015.68 359.044 1013.28 360.644C1010.88 362.244 1006.78 363.044 1000.98 363.044C995.377 363.044 991.277 362.144 988.677 360.344C986.077 358.744 984.477 356.644 983.877 354.044C983.277 351.244 982.977 348.144 982.977 344.744V285.044C982.977 277.844 981.677 271.644 979.077 266.444C976.677 261.244 973.077 257.244 968.277 254.444C963.677 251.644 957.777 250.244 950.577 250.244C943.577 250.244 937.477 251.744 932.277 254.744C927.077 257.544 923.077 261.544 920.277 266.744C917.477 271.944 916.077 278.044 916.077 285.044V345.044C916.077 348.444 915.777 351.544 915.177 354.344C914.577 356.944 912.977 359.044 910.377 360.644C907.977 362.244 903.877 363.044 898.077 363.044ZM1058.45 363.344C1053.05 363.344 1049.05 362.444 1046.45 360.644C1043.85 359.044 1042.25 356.944 1041.65 354.344C1041.05 351.544 1040.75 348.444 1040.75 345.044V233.444C1040.75 230.244 1041.05 227.344 1041.65 224.744C1042.45 221.944 1044.05 219.744 1046.45 218.144C1049.05 216.544 1053.15 215.744 1058.75 215.744C1064.35 215.744 1068.35 216.544 1070.75 218.144C1073.35 219.744 1074.95 221.944 1075.55 224.744C1076.15 227.544 1076.45 230.644 1076.45 234.044V345.344C1076.45 348.744 1076.15 351.844 1075.55 354.644C1074.95 357.244 1073.35 359.344 1070.75 360.944C1068.35 362.544 1064.25 363.344 1058.45 363.344ZM1058.45 186.644C1052.65 186.644 1048.35 185.844 1045.55 184.244C1042.95 182.444 1041.25 180.044 1040.45 177.044C1039.85 174.044 1039.55 170.744 1039.55 167.144C1039.55 163.344 1039.85 160.044 1040.45 157.244C1041.25 154.444 1043.05 152.244 1045.85 150.644C1048.65 148.844 1052.95 147.944 1058.75 147.944C1064.75 147.944 1069.05 148.844 1071.65 150.644C1074.25 152.444 1075.95 154.844 1076.75 157.844C1077.55 160.644 1077.95 163.944 1077.95 167.744C1077.95 171.144 1077.55 174.344 1076.75 177.344C1075.95 180.344 1074.25 182.644 1071.65 184.244C1069.05 185.844 1064.65 186.644 1058.45 186.644Z" fill="url(#paint0_linear_242_31)"/>
<path d="M184.092 30.1281C189.117 30.6496 194.002 33.5797 198.522 39.1628C203.056 44.7629 207.014 52.7995 210.08 62.8624C216.206 82.9715 218.536 110.395 215.431 140.306C212.327 170.217 204.414 196.577 194.288 214.999C189.221 224.218 183.697 231.271 178.11 235.82C172.539 240.356 167.156 242.22 162.132 241.698C157.108 241.177 152.222 238.247 147.702 232.664C143.168 227.064 139.211 219.027 136.145 208.964C130.018 188.855 127.688 161.432 130.793 131.521C133.898 101.61 141.81 75.2494 151.936 56.8272C157.003 47.6085 162.527 40.556 168.114 36.0065C173.685 31.4708 179.068 29.6066 184.092 30.1281Z" fill="url(#paint1_linear_242_31)" stroke="url(#paint2_linear_242_31)" stroke-width="8"/>
<path d="M173.438 241.395C173.439 241.396 173.44 241.398 173.44 241.399C170.149 243.095 165.838 239.579 162.702 236.359L163.06 236.01C163.06 236.01 163.06 236.01 163.06 236.01C162.183 235.109 161.18 233.438 160.109 231.063C159.044 228.702 157.931 225.69 156.817 222.149C154.591 215.069 152.373 205.902 150.542 195.651C146.879 175.144 144.773 150.348 147.219 129.293C150.558 100.561 157.718 78.4341 165.657 63.7337C169.627 56.3815 173.781 50.9058 177.732 47.3879C181.597 43.9466 185.198 42.4372 188.21 42.7584C191.439 48.0019 193.364 55.1564 194.277 63.8298C195.201 72.6083 195.084 82.9018 194.261 94.2659C192.615 116.996 188.148 143.942 183.579 171.506C179.695 194.93 175.748 218.789 173.397 240.852L173.869 241.145C173.728 241.24 173.586 241.324 173.441 241.399C173.44 241.397 173.439 241.396 173.438 241.395ZM173.438 241.395C173.429 241.381 173.422 241.37 173.417 241.361C173.406 241.335 173.39 241.291 173.385 241.272C173.381 241.258 173.376 241.233 173.375 241.222C173.374 241.219 173.374 241.215 173.373 241.211C173.372 241.204 173.371 241.196 173.371 241.192L173.369 241.171L173.369 241.156C173.369 241.153 173.369 241.15 173.369 241.148C173.369 241.143 173.369 241.14 173.369 241.137C173.369 241.127 173.369 241.12 173.37 241.116L173.37 241.111M173.438 241.395C173.42 241.361 173.4 241.317 173.393 241.296C173.388 241.278 173.38 241.247 173.377 241.234C173.377 241.229 173.376 241.223 173.375 241.217C173.374 241.209 173.373 241.201 173.372 241.197C173.371 241.19 173.37 241.178 173.37 241.172L173.369 241.156C173.369 241.146 173.369 241.139 173.369 241.134L173.37 241.12L173.37 241.111M173.37 241.111L173.37 241.105L173.371 241.099L173.37 241.111ZM173.768 240.663C173.814 240.659 173.868 240.658 173.92 240.662C173.92 240.661 173.921 240.66 173.921 240.659C173.889 240.652 173.859 240.648 173.834 240.647C173.814 240.65 173.792 240.656 173.768 240.663Z" fill="url(#paint3_linear_242_31)" stroke="url(#paint4_linear_242_31)"/>
<path d="M279.79 51.8467C284.271 54.1778 287.738 58.698 289.891 65.5515C292.05 72.4258 292.778 81.3543 291.932 91.8397C290.241 112.793 282.332 139.155 268.454 165.833C254.576 192.511 237.532 214.12 221.345 227.533C213.245 234.245 205.517 238.774 198.648 240.952C191.801 243.124 186.109 242.88 181.628 240.549C177.147 238.218 173.68 233.698 171.527 226.844C169.368 219.97 168.64 211.041 169.486 200.556C171.177 179.602 179.086 153.241 192.964 126.563C206.842 99.8849 223.887 78.276 240.073 64.863C248.173 58.151 255.902 53.6214 262.77 51.4431C269.617 49.2715 275.309 49.5157 279.79 51.8467Z" fill="url(#paint5_linear_242_31)" stroke="url(#paint6_linear_242_31)" stroke-width="8"/>
<mask id="path-5-inside-1_242_31" fill="white">
<path fill-rule="evenodd" clip-rule="evenodd" d="M250.741 289.896C254.27 262.53 250.741 242.474 232.87 214.667C155.713 152.456 25.9404 267.722 25.9404 328.392C28.4994 397.463 218.787 431.838 250.741 289.896ZM123.648 307.929C133.873 307.929 142.161 303.754 142.161 293.53C142.161 283.305 133.873 275.017 123.648 275.017C113.424 275.017 105.135 283.305 105.135 293.53C105.135 303.754 113.424 307.929 123.648 307.929Z"/>
</mask>
<path fill-rule="evenodd" clip-rule="evenodd" d="M250.741 289.896C254.27 262.53 250.741 242.474 232.87 214.667C155.713 152.456 25.9404 267.722 25.9404 328.392C28.4994 397.463 218.787 431.838 250.741 289.896ZM123.648 307.929C133.873 307.929 142.161 303.754 142.161 293.53C142.161 283.305 133.873 275.017 123.648 275.017C113.424 275.017 105.135 283.305 105.135 293.53C105.135 303.754 113.424 307.929 123.648 307.929Z" fill="url(#paint7_linear_242_31)"/>
<path d="M232.87 214.667L233.711 214.126L233.624 213.99L233.498 213.889L232.87 214.667ZM250.741 289.896L251.716 290.115L251.726 290.07L251.732 290.024L250.741 289.896ZM25.9404 328.392H24.9404V328.41L24.9411 328.429L25.9404 328.392ZM232.029 215.208C240.921 229.044 246.212 240.901 248.855 252.666C251.497 264.429 251.504 276.16 249.749 289.768L251.732 290.024C253.507 276.265 253.514 264.286 250.806 252.228C248.098 240.172 242.69 228.097 233.711 214.126L232.029 215.208ZM26.9404 328.392C26.9404 313.536 34.9082 295.166 48.2314 276.867C61.533 258.598 80.0814 240.526 101.034 226.276C143.017 197.723 194.201 184.773 232.242 215.446L233.498 213.889C194.383 182.351 142.101 195.928 99.909 224.622C78.7736 238.996 60.0565 257.228 46.6146 275.69C33.1942 294.123 24.9404 312.913 24.9404 328.392H26.9404ZM249.765 289.676C241.829 324.928 224.082 349.176 201.921 364.686C179.744 380.208 153.089 387.018 127.307 387.274C101.52 387.53 76.6748 381.228 58.1488 370.609C39.5984 359.976 27.5614 345.133 26.9397 328.355L24.9411 328.429C25.599 346.186 38.3075 361.541 57.1542 372.344C76.0253 383.161 101.229 389.533 127.327 389.273C153.432 389.014 180.5 382.12 203.068 366.325C225.653 350.518 243.675 325.834 251.716 290.115L249.765 289.676ZM141.161 293.53C141.161 298.328 139.239 301.615 136.169 303.742C133.048 305.905 128.647 306.929 123.648 306.929V308.929C128.874 308.929 133.73 307.866 137.309 305.386C140.94 302.869 143.161 298.956 143.161 293.53H141.161ZM123.648 276.017C133.32 276.017 141.161 283.858 141.161 293.53H143.161C143.161 282.753 134.425 274.017 123.648 274.017V276.017ZM106.135 293.53C106.135 283.858 113.976 276.017 123.648 276.017V274.017C112.871 274.017 104.135 282.753 104.135 293.53H106.135ZM123.648 306.929C118.649 306.929 114.248 305.905 111.127 303.742C108.057 301.615 106.135 298.328 106.135 293.53H104.135C104.135 298.956 106.357 302.869 109.988 305.386C113.567 307.866 118.423 308.929 123.648 308.929V306.929Z" fill="url(#paint8_linear_242_31)" mask="url(#path-5-inside-1_242_31)"/>
<path d="M260.305 418.18L260.304 418.18C238.734 429.441 212.774 433.754 189.033 431.47C165.891 429.244 144.931 420.76 132.192 406.422C174.753 415.645 204.263 393.332 233.754 371.033L233.809 370.991C260.338 350.933 286.854 330.907 322.99 333.173C318.316 340.557 314.315 348.812 310.211 357.279L310.208 357.286C299.27 379.851 287.551 403.993 260.305 418.18Z" fill="url(#paint9_linear_242_31)" stroke="url(#paint10_linear_242_31)"/>
<path d="M134.911 459.869L134.912 459.869C151.035 472.822 176.454 471.088 190.002 455.55C180.88 457.553 173.623 455.493 167.348 451.341C160.781 446.997 155.287 440.36 149.836 433.774L149.808 433.74C140.12 422.035 130.57 410.549 115.24 411.157C116.6 415.363 117.616 420.028 118.654 424.798L118.657 424.81C121.482 437.785 124.495 451.524 134.911 459.869Z" fill="url(#paint11_linear_242_31)" stroke="url(#paint12_linear_242_31)"/>
<path d="M199.32 241.421C199.32 241.423 199.32 241.424 199.321 241.426C195.652 241.928 192.759 237.177 190.876 233.095L191.33 232.886C191.33 232.886 191.33 232.885 191.33 232.885C190.803 231.744 190.415 229.834 190.196 227.238C189.979 224.657 189.933 221.446 190.063 217.737C190.323 210.319 191.287 200.937 192.977 190.662C196.358 170.106 202.635 146.026 211.958 126.99C224.681 101.013 238.806 82.5373 251.19 71.3226C257.383 65.7137 263.125 61.9355 268.022 59.9354C272.813 57.9789 276.711 57.7558 279.444 59.0624C280.741 65.0821 280.171 72.4691 278.142 80.9509C276.087 89.5356 272.547 99.2018 267.984 109.642C258.857 130.525 245.666 154.441 232.172 178.906C220.704 199.698 209.032 220.877 199.462 240.896L199.81 241.329C199.645 241.372 199.483 241.404 199.321 241.426C199.321 241.424 199.32 241.423 199.32 241.421ZM199.32 241.421C199.316 241.406 199.313 241.392 199.312 241.382C199.31 241.355 199.309 241.307 199.311 241.287C199.312 241.273 199.316 241.248 199.318 241.237C199.318 241.234 199.319 241.23 199.32 241.226C199.322 241.219 199.323 241.211 199.324 241.207L199.33 241.187L199.334 241.173C199.335 241.17 199.336 241.168 199.337 241.165C199.338 241.161 199.34 241.158 199.341 241.155C199.344 241.146 199.347 241.139 199.348 241.135L199.351 241.131M199.32 241.421C199.314 241.384 199.31 241.335 199.31 241.313C199.311 241.295 199.315 241.263 199.317 241.249C199.317 241.245 199.318 241.239 199.32 241.233C199.321 241.225 199.323 241.217 199.324 241.212C199.325 241.206 199.328 241.194 199.33 241.189L199.335 241.173C199.338 241.164 199.34 241.157 199.342 241.152L199.347 241.139L199.351 241.131M199.351 241.131L199.353 241.125L199.355 241.12L199.351 241.131ZM199.876 240.841C199.92 240.853 199.971 240.87 200.019 240.891C200.019 240.89 200.02 240.889 200.02 240.889C199.993 240.872 199.966 240.858 199.943 240.848C199.923 240.845 199.9 240.842 199.876 240.841Z" fill="url(#paint13_linear_242_31)" stroke="url(#paint14_linear_242_31)"/>
<path fill-rule="evenodd" clip-rule="evenodd" d="M25.2804 125.578C23.3996 121.811 27.8662 118.069 31.2453 120.581L51.1395 135.368C49.0823 138.078 42.5428 142.707 33.1403 141.32L25.2804 125.578ZM42.5428 155.563C47.2939 155.537 58.3389 153.899 64.51 147.553L96.4352 176.648C84.0517 189.504 72.2238 190.67 64.9491 189.504L42.5428 155.563ZM77.8497 209.046L97.8143 239.288C99.1397 241.296 101.925 241.688 103.753 240.124L132.464 215.564C134.293 214 134.337 211.188 132.559 209.568L111.822 190.67C109.401 195.604 99.2179 206.187 77.8497 209.046Z" fill="url(#paint15_linear_242_31)"/>
</g>
<defs>
<linearGradient id="paint0_linear_242_31" x1="751.5" y1="0.34375" x2="751.5" y2="498.344" gradientUnits="userSpaceOnUse">
<stop offset="1" stop-color="#6366F1"/>
</linearGradient>
<linearGradient id="paint1_linear_242_31" x1="126.814" y1="131.108" x2="219.41" y2="140.719" gradientUnits="userSpaceOnUse">
<stop offset="1" stop-color="#6366F1"/>
</linearGradient>
<linearGradient id="paint2_linear_242_31" x1="126.814" y1="131.108" x2="219.41" y2="140.719" gradientUnits="userSpaceOnUse">
<stop offset="1" stop-color="#6366F1"/>
</linearGradient>
<linearGradient id="paint3_linear_242_31" x1="184.148" y1="239.648" x2="141.353" y2="-16.8305" gradientUnits="userSpaceOnUse">
<stop offset="0.58" stop-color="#D5E3FE"/>
<stop offset="1" stop-color="white" stop-opacity="0"/>
</linearGradient>
<linearGradient id="paint4_linear_242_31" x1="133.106" y1="111.975" x2="220.831" y2="169.38" gradientUnits="userSpaceOnUse">
<stop offset="1" stop-color="#6366F1"/>
</linearGradient>
<linearGradient id="paint5_linear_242_31" x1="189.415" y1="124.717" x2="272.003" y2="167.679" gradientUnits="userSpaceOnUse">
<stop offset="1" stop-color="#6366F1"/>
</linearGradient>
<linearGradient id="paint6_linear_242_31" x1="189.415" y1="124.717" x2="272.003" y2="167.679" gradientUnits="userSpaceOnUse">
<stop offset="1" stop-color="#6366F1"/>
</linearGradient>
<linearGradient id="paint7_linear_242_31" x1="138.954" y1="196.78" x2="138.954" y2="388.281" gradientUnits="userSpaceOnUse">
<stop offset="1" stop-color="#6366F1"/>
</linearGradient>
<linearGradient id="paint8_linear_242_31" x1="138.954" y1="196.78" x2="138.954" y2="388.281" gradientUnits="userSpaceOnUse">
<stop offset="1" stop-color="#6366F1"/>
</linearGradient>
<linearGradient id="paint9_linear_242_31" x1="330.742" y1="369.67" x2="131.053" y2="406.842" gradientUnits="userSpaceOnUse">
<stop offset="1" stop-color="#6366F1"/>
</linearGradient>
<linearGradient id="paint10_linear_242_31" x1="330.742" y1="369.67" x2="131.053" y2="406.842" gradientUnits="userSpaceOnUse">
<stop offset="1" stop-color="#6366F1"/>
</linearGradient>
<linearGradient id="paint11_linear_242_31" x1="108.536" y1="431.527" x2="191.153" y2="455.409" gradientUnits="userSpaceOnUse">
<stop offset="1" stop-color="#6366F1"/>
</linearGradient>
<linearGradient id="paint12_linear_242_31" x1="108.536" y1="431.527" x2="191.153" y2="455.409" gradientUnits="userSpaceOnUse">
<stop offset="1" stop-color="#6366F1"/>
</linearGradient>
<linearGradient id="paint13_linear_242_31" x1="210" y1="243.344" x2="255.124" y2="-12.7356" gradientUnits="userSpaceOnUse">
<stop offset="0.58" stop-color="#D5E3FE"/>
<stop offset="1" stop-color="white" stop-opacity="0"/>
</linearGradient>
<linearGradient id="paint14_linear_242_31" x1="204.423" y1="105.959" x2="268.003" y2="189.317" gradientUnits="userSpaceOnUse">
<stop offset="1" stop-color="#6366F1"/>
</linearGradient>
<linearGradient id="paint15_linear_242_31" x1="17.7984" y1="110.577" x2="118.109" y2="227.844" gradientUnits="userSpaceOnUse">
<stop offset="1" stop-color="#6366F1"/>
</linearGradient>
<clipPath id="clip0_242_31">
<rect width="1133" height="498" fill="white" transform="translate(0 0.34375)"/>
</clipPath>
</defs>
</svg>
