<svg width="351" height="444" viewBox="0 0 351 444" fill="none" xmlns="http://www.w3.org/2000/svg">
<g clip-path="url(#clip0_242_71)">
<path d="M200.08 8.65115C204.927 9.15425 209.652 11.9816 214.035 17.3949C218.431 22.825 222.273 30.6244 225.252 40.3999C231.203 59.9343 233.468 86.582 230.451 115.653C227.433 144.724 219.743 170.338 209.907 188.234C204.984 197.189 199.622 204.033 194.204 208.444C188.803 212.842 183.598 214.639 178.751 214.136C173.904 213.632 169.178 210.805 164.796 205.392C160.399 199.962 156.557 192.162 153.579 182.387C147.627 162.852 145.362 136.205 148.379 107.134C151.397 78.0632 159.087 52.4488 168.923 34.5532C173.846 25.5977 179.208 18.7537 184.626 14.3423C190.027 9.94461 195.233 8.14805 200.08 8.65115Z" fill="white" stroke="white" stroke-width="8"/>
<path fill-rule="evenodd" clip-rule="evenodd" d="M190.151 213.707C186.905 215.905 182.477 212.324 179.293 209.054C171.977 201.537 158.985 145.972 163.757 104.9C170.26 48.9364 191.662 18.5983 204.385 20.367C217.46 41.187 208.955 92.4933 200.071 146.079C196.281 168.939 192.432 192.208 190.151 213.707Z" fill="url(#paint0_linear_242_71)"/>
<path d="M293.084 29.756C297.407 32.0048 300.764 36.3708 302.851 43.0157C304.944 49.6814 305.652 58.3469 304.83 68.533C303.188 88.8876 295.503 114.504 282.015 140.432C268.528 166.361 251.964 187.358 236.24 200.388C228.371 206.908 220.87 211.303 214.21 213.415C207.571 215.521 202.069 215.279 197.746 213.03C193.423 210.781 190.067 206.415 187.98 199.77C185.886 193.105 185.178 184.439 186 174.253C187.643 153.898 195.327 128.282 208.815 102.354C222.303 76.4251 238.866 55.428 254.59 42.3984C262.459 35.8781 269.961 31.483 276.621 29.3709C283.26 27.2654 288.761 27.5072 293.084 29.756Z" fill="white" stroke="white" stroke-width="8"/>
<path fill-rule="evenodd" clip-rule="evenodd" d="M264.891 261.107C268.323 234.5 264.891 215 247.516 187.964C172.498 127.478 46.3232 239.548 46.3232 298.536C48.8112 365.692 233.823 399.114 264.891 261.107ZM141.323 278.641C151.264 278.641 159.323 274.582 159.323 264.641C159.323 254.7 151.264 246.641 141.323 246.641C131.382 246.641 123.323 254.7 123.323 264.641C123.323 274.582 131.382 278.641 141.323 278.641Z" fill="white"/>
<path d="M335.987 302.754C300.227 300.18 274.104 319.931 248.135 339.567C219.089 361.529 190.232 383.347 148.296 373.606C173.069 403.093 232.286 408.259 274.413 386.266C301.065 372.389 312.518 348.767 323.146 326.841C327.269 318.335 331.27 310.082 335.987 302.754Z" fill="white"/>
<path d="M132.483 378.554C148.046 377.599 157.616 389.16 167.129 400.654C177.77 413.509 188.341 426.281 207.15 421.352C194.066 437.713 168.22 439.805 151.967 426.748C141.682 418.508 138.731 404.96 135.992 392.385C134.93 387.506 133.899 382.773 132.483 378.554Z" fill="white"/>
<path fill-rule="evenodd" clip-rule="evenodd" d="M215.37 213.886C211.578 214.877 208.596 210.024 206.684 205.881C202.291 196.356 208.559 139.637 226.745 102.503C251.527 51.9054 281.816 30.434 293.222 36.3414C298.612 60.3288 273.494 105.868 247.261 153.429C236.069 173.72 224.685 194.376 215.37 213.886Z" fill="url(#paint1_linear_242_71)"/>
<path fill-rule="evenodd" clip-rule="evenodd" d="M34.966 88.8452C32.3715 84.9152 37.5179 80.5131 40.9985 83.6851L70.8229 110.865C68.8228 113.5 62.4646 118 53.3228 116.652L34.966 88.8452ZM62.4646 130.5C67.084 130.475 77.8228 128.882 83.8228 122.712L114.863 151C102.823 163.5 91.3228 164.633 84.2497 163.5L62.4646 130.5ZM96.7927 182.5L116.135 211.799C117.46 213.807 120.245 214.199 122.073 212.635L149.798 188.919C151.626 187.356 151.67 184.544 149.892 182.923L129.823 164.633C127.469 169.431 117.568 179.72 96.7927 182.5Z" fill="white"/>
</g>
<defs>
<linearGradient id="paint0_linear_242_71" x1="222.568" y1="320.624" x2="158.524" y2="-37.1132" gradientUnits="userSpaceOnUse">
<stop stop-color="#CDCED8"/>
<stop offset="1" stop-color="#8697FF" stop-opacity="0"/>
</linearGradient>
<linearGradient id="paint1_linear_242_71" x1="210.304" y1="325.495" x2="269.138" y2="-33.1364" gradientUnits="userSpaceOnUse">
<stop stop-color="#CDCED8"/>
<stop offset="1" stop-color="#8697FF" stop-opacity="0"/>
</linearGradient>
<clipPath id="clip0_242_71">
<rect width="350.205" height="443.845" fill="white"/>
</clipPath>
</defs>
</svg>
