<svg width="32" height="33" viewBox="0 0 32 33" fill="none" xmlns="http://www.w3.org/2000/svg">
<rect width="32" height="32" transform="translate(0 0.34375)" fill="#6366F1"/>
<path d="M18.6563 10.1048C19.0127 6.67143 18.1276 3.76625 16.6794 3.61593C15.2312 3.46561 13.7683 6.12708 13.4119 9.56049C13.0555 12.9939 13.9406 15.8991 15.3888 16.0494C16.837 16.1997 18.2999 13.5382 18.6563 10.1048Z" fill="white"/>
<path d="M21.6344 11.6318C23.2274 8.56951 23.4716 5.54233 22.18 4.87041C20.8883 4.19849 18.5498 6.13628 16.9568 9.19858C15.3638 12.2609 15.1196 15.2881 16.4112 15.96C17.7029 16.6319 20.0414 14.6941 21.6344 11.6318Z" fill="white"/>
<path fill-rule="evenodd" clip-rule="evenodd" d="M16.0864 15.9253C15.8963 16.054 15.6369 15.8442 15.4504 15.6527C15.0218 15.2124 14.2608 11.9574 14.5403 9.55144C14.9212 6.27313 16.175 4.49596 16.9202 4.59957C17.6862 5.81918 17.1879 8.82466 16.6675 11.9636C16.4455 13.3028 16.2201 14.6658 16.0864 15.9253Z" fill="url(#paint0_linear_180_108)"/>
<path fill-rule="evenodd" clip-rule="evenodd" d="M20.4303 18.5541C20.6302 17.0042 20.4303 15.8683 19.4182 14.2934C15.0482 10.7699 7.69824 17.2983 7.69824 20.7344C7.84317 24.6464 18.6205 26.5933 20.4303 18.5541ZM13.2323 19.5754C13.8114 19.5754 14.2808 19.339 14.2808 18.7599C14.2808 18.1809 13.8114 17.7114 13.2323 17.7114C12.6532 17.7114 12.1838 18.1809 12.1838 18.7599C12.1838 19.339 12.6532 19.5754 13.2323 19.5754Z" fill="white"/>
<path d="M24.5722 20.98C22.489 20.8301 20.9673 21.9806 19.4546 23.1244C17.7626 24.4038 16.0816 25.6747 13.6387 25.1073C15.0818 26.825 18.5313 27.1259 20.9853 25.8448C22.5379 25.0364 23.205 23.6604 23.8241 22.3831C24.0643 21.8876 24.2974 21.4069 24.5722 20.98Z" fill="white"/>
<path d="M12.7168 25.3958C13.6234 25.3402 14.1808 26.0137 14.735 26.6832C15.3548 27.432 15.9706 28.176 17.0663 27.8889C16.3041 28.8419 14.7985 28.9638 13.8518 28.2032C13.2526 27.7232 13.0807 26.934 12.9212 26.2015C12.8593 25.9173 12.7992 25.6415 12.7168 25.3958Z" fill="white"/>
<path fill-rule="evenodd" clip-rule="evenodd" d="M17.5637 15.936C17.3415 15.994 17.1669 15.7097 17.0548 15.467C16.7975 14.909 17.1647 11.5865 18.23 9.41123C19.6817 6.44726 21.456 5.18949 22.1242 5.53553C22.4399 6.9407 20.9685 9.60832 19.4318 12.3944C18.7762 13.5831 18.1094 14.7931 17.5637 15.936Z" fill="url(#paint1_linear_180_108)"/>
<path fill-rule="evenodd" clip-rule="evenodd" d="M7.58439 9.83504C7.22204 9.28614 7.9408 8.6713 8.42693 9.11433L8.78288 9.43872C8.6459 9.61917 8.21047 9.92735 7.58439 9.83504ZM8.21047 10.7834C8.52682 10.7817 9.26226 10.6726 9.67317 10.2501L11.7989 12.1873C10.9744 13.0434 10.1868 13.121 9.70241 13.0434L8.21047 10.7834ZM10.5614 14.3446L11.1977 15.3085C11.654 15.9997 12.6127 16.1346 13.2421 15.5963C13.8714 15.058 13.8866 14.0899 13.2745 13.5321L12.8235 13.121C12.6623 13.4496 11.9842 14.1542 10.5614 14.3446Z" fill="white"/>
<defs>
<linearGradient id="paint0_linear_180_108" x1="17.9854" y1="22.1883" x2="14.2337" y2="1.23243" gradientUnits="userSpaceOnUse">
<stop stop-color="#CDCED8"/>
<stop offset="1" stop-color="#8697FF" stop-opacity="0"/>
</linearGradient>
<linearGradient id="paint1_linear_180_108" x1="17.2669" y1="22.4739" x2="20.7134" y2="1.46559" gradientUnits="userSpaceOnUse">
<stop stop-color="#CDCED8"/>
<stop offset="1" stop-color="#8697FF" stop-opacity="0"/>
</linearGradient>
</defs>
</svg>
