<svg width="1500" height="501" viewBox="0 0 1500 501" fill="none" xmlns="http://www.w3.org/2000/svg">
<rect width="1500" height="500" transform="translate(0 0.34375)" fill="#6366F1"/>
<path d="M688.218 286.208C686.554 286.208 685.306 285.92 684.474 285.344C683.642 284.768 683.098 284 682.842 283.04C682.65 282.08 682.554 281.024 682.554 279.872V225.344C682.554 224.192 682.682 223.168 682.938 222.272C683.194 221.312 683.706 220.544 684.474 219.968C685.306 219.392 686.586 219.104 688.314 219.104H713.658C717.37 219.104 720.634 219.968 723.45 221.696C726.33 223.424 728.57 225.728 730.17 228.608C731.77 231.424 732.57 234.528 732.57 237.92C732.57 239.456 732.378 240.992 731.994 242.528C731.674 244 731.13 245.376 730.362 246.656C729.658 247.936 728.762 249.088 727.674 250.112C729.146 251.264 730.426 252.672 731.514 254.336C732.602 256 733.402 257.824 733.914 259.808C734.49 261.728 734.778 263.744 734.778 265.856C734.714 268.736 734.17 271.424 733.146 273.92C732.122 276.352 730.682 278.496 728.826 280.352C727.034 282.208 724.922 283.648 722.49 284.672C720.058 285.696 717.434 286.208 714.618 286.208H688.218ZM694.17 274.88H713.658C715.514 274.88 717.146 274.528 718.554 273.824C720.026 273.12 721.178 272.032 722.01 270.56C722.842 269.088 723.258 267.168 723.258 264.8C723.258 262.944 723.002 261.472 722.49 260.384C722.042 259.232 721.402 258.336 720.57 257.696C719.802 257.056 718.906 256.608 717.882 256.352C716.922 256.096 715.962 255.968 715.002 255.968C714.042 255.904 713.146 255.872 712.314 255.872H707.898C706.234 255.872 705.018 255.488 704.25 254.72C703.482 253.888 703.098 252.544 703.098 250.688C703.098 248.96 703.514 247.744 704.346 247.04C705.178 246.272 706.458 245.888 708.186 245.888H712.506C713.338 245.888 714.234 245.856 715.194 245.792C716.218 245.728 717.178 245.504 718.074 245.12C718.97 244.672 719.706 243.968 720.282 243.008C720.858 242.048 721.146 240.64 721.146 238.784C721.146 235.904 720.378 233.824 718.842 232.544C717.37 231.2 714.81 230.528 711.162 230.528H694.17V274.88ZM762.993 286.208C760.049 286.208 757.329 285.696 754.833 284.672C752.401 283.584 750.257 282.048 748.401 280.064C746.545 278.08 745.105 275.712 744.081 272.96C743.057 270.208 742.545 267.168 742.545 263.84V244.736C742.545 243.648 742.641 242.688 742.833 241.856C743.025 240.96 743.537 240.256 744.369 239.744C745.201 239.232 746.481 238.976 748.209 238.976C750.065 238.976 751.377 239.232 752.145 239.744C752.977 240.256 753.489 240.96 753.681 241.856C753.873 242.752 753.969 243.744 753.969 244.832V263.84C753.969 266.144 754.353 268.128 755.121 269.792C755.953 271.456 757.137 272.768 758.673 273.728C760.209 274.624 762.097 275.072 764.337 275.072C766.641 275.072 768.593 274.624 770.193 273.728C771.857 272.768 773.137 271.456 774.033 269.792C774.929 268.064 775.377 266.08 775.377 263.84V244.64C775.377 243.552 775.473 242.592 775.665 241.76C775.857 240.864 776.369 240.192 777.201 239.744C778.033 239.232 779.345 238.976 781.137 238.976C782.929 238.976 784.209 239.232 784.977 239.744C785.745 240.256 786.225 240.96 786.417 241.856C786.673 242.752 786.801 243.712 786.801 244.736V280.736C786.801 281.696 786.673 282.592 786.417 283.424C786.225 284.256 785.713 284.928 784.881 285.44C784.113 285.952 782.833 286.208 781.041 286.208C779.761 286.208 778.737 286.048 777.969 285.728C777.265 285.472 776.721 285.12 776.337 284.672C776.017 284.16 775.793 283.648 775.665 283.136C775.601 282.624 775.569 282.112 775.569 281.6L776.337 279.008C775.953 279.584 775.377 280.288 774.609 281.12C773.841 281.888 772.881 282.688 771.729 283.52C770.641 284.288 769.361 284.928 767.889 285.44C766.417 285.952 764.785 286.208 762.993 286.208ZM801.948 286.208C800.22 286.208 798.94 285.92 798.108 285.344C797.34 284.832 796.86 284.16 796.668 283.328C796.476 282.432 796.38 281.44 796.38 280.352V244.448C796.38 243.424 796.476 242.496 796.668 241.664C796.86 240.832 797.372 240.192 798.204 239.744C799.036 239.232 800.316 238.976 802.044 238.976C803.58 238.976 804.732 239.168 805.5 239.552C806.268 239.936 806.78 240.416 807.036 240.992C807.292 241.568 807.42 242.144 807.42 242.72C807.484 243.296 807.548 243.744 807.612 244.064L807.228 247.136C807.612 246.112 808.252 245.12 809.148 244.16C810.044 243.2 811.132 242.336 812.412 241.568C813.692 240.736 815.068 240.096 816.54 239.648C818.076 239.136 819.644 238.88 821.244 238.88C824.252 238.88 826.94 239.424 829.308 240.512C831.676 241.6 833.692 243.136 835.356 245.12C837.084 247.104 838.396 249.472 839.292 252.224C840.188 254.912 840.636 257.952 840.636 261.344V280.448C840.636 281.536 840.508 282.528 840.252 283.424C840.06 284.256 839.58 284.928 838.812 285.44C838.044 285.952 836.732 286.208 834.876 286.208C833.084 286.208 831.772 285.92 830.94 285.344C830.108 284.832 829.596 284.16 829.404 283.328C829.212 282.432 829.116 281.44 829.116 280.352V261.248C829.116 258.944 828.7 256.96 827.868 255.296C827.1 253.632 825.948 252.352 824.412 251.456C822.94 250.56 821.052 250.112 818.748 250.112C816.508 250.112 814.556 250.592 812.892 251.552C811.228 252.448 809.948 253.728 809.052 255.392C808.156 257.056 807.708 259.008 807.708 261.248V280.448C807.708 281.536 807.612 282.528 807.42 283.424C807.228 284.256 806.716 284.928 805.884 285.44C805.116 285.952 803.804 286.208 801.948 286.208ZM855.667 286.208C853.939 286.208 852.659 285.92 851.827 285.344C851.059 284.832 850.579 284.16 850.387 283.328C850.195 282.432 850.099 281.44 850.099 280.352V244.448C850.099 243.424 850.195 242.496 850.387 241.664C850.579 240.832 851.091 240.192 851.923 239.744C852.755 239.232 854.035 238.976 855.763 238.976C857.299 238.976 858.451 239.168 859.219 239.552C859.987 239.936 860.499 240.416 860.755 240.992C861.011 241.568 861.139 242.144 861.139 242.72C861.203 243.296 861.267 243.744 861.331 244.064L860.947 247.136C861.331 246.112 861.971 245.12 862.867 244.16C863.763 243.2 864.851 242.336 866.131 241.568C867.411 240.736 868.787 240.096 870.259 239.648C871.795 239.136 873.363 238.88 874.963 238.88C877.971 238.88 880.659 239.424 883.027 240.512C885.395 241.6 887.411 243.136 889.075 245.12C890.803 247.104 892.115 249.472 893.011 252.224C893.907 254.912 894.355 257.952 894.355 261.344V280.448C894.355 281.536 894.227 282.528 893.971 283.424C893.779 284.256 893.299 284.928 892.531 285.44C891.763 285.952 890.451 286.208 888.595 286.208C886.803 286.208 885.491 285.92 884.659 285.344C883.827 284.832 883.315 284.16 883.123 283.328C882.931 282.432 882.835 281.44 882.835 280.352V261.248C882.835 258.944 882.419 256.96 881.587 255.296C880.819 253.632 879.667 252.352 878.131 251.456C876.659 250.56 874.771 250.112 872.467 250.112C870.227 250.112 868.275 250.592 866.611 251.552C864.947 252.448 863.667 253.728 862.771 255.392C861.875 257.056 861.427 259.008 861.427 261.248V280.448C861.427 281.536 861.331 282.528 861.139 283.424C860.947 284.256 860.435 284.928 859.603 285.44C858.835 285.952 857.523 286.208 855.667 286.208ZM909.865 286.304C908.137 286.304 906.857 286.016 906.025 285.44C905.193 284.928 904.681 284.256 904.489 283.424C904.297 282.528 904.201 281.536 904.201 280.448V244.736C904.201 243.712 904.297 242.784 904.489 241.952C904.745 241.056 905.257 240.352 906.025 239.84C906.857 239.328 908.169 239.072 909.961 239.072C911.753 239.072 913.033 239.328 913.801 239.84C914.633 240.352 915.145 241.056 915.337 241.952C915.529 242.848 915.625 243.84 915.625 244.928V280.544C915.625 281.632 915.529 282.624 915.337 283.52C915.145 284.352 914.633 285.024 913.801 285.536C913.033 286.048 911.721 286.304 909.865 286.304ZM909.865 229.76C908.009 229.76 906.633 229.504 905.737 228.992C904.905 228.416 904.361 227.648 904.105 226.688C903.913 225.728 903.817 224.672 903.817 223.52C903.817 222.304 903.913 221.248 904.105 220.352C904.361 219.456 904.937 218.752 905.833 218.24C906.729 217.664 908.105 217.376 909.961 217.376C911.881 217.376 913.257 217.664 914.089 218.24C914.921 218.816 915.465 219.584 915.721 220.544C915.977 221.44 916.105 222.496 916.105 223.712C916.105 224.8 915.977 225.824 915.721 226.784C915.465 227.744 914.921 228.48 914.089 228.992C913.257 229.504 911.849 229.76 909.865 229.76Z" fill="white"/>
<path d="M621.459 203.192C621.544 203.201 621.97 203.27 622.656 204.117C623.356 204.981 624.103 206.407 624.729 208.46C625.974 212.548 626.501 218.353 625.827 224.843C625.154 231.333 623.446 236.905 621.387 240.651C620.353 242.532 619.329 243.774 618.467 244.476C617.622 245.164 617.19 245.143 617.106 245.135C617.021 245.126 616.595 245.057 615.909 244.21C615.209 243.346 614.462 241.92 613.836 239.868C612.591 235.779 612.064 229.974 612.737 223.484C613.411 216.994 615.119 211.422 617.178 207.676C618.211 205.795 619.236 204.553 620.098 203.851C620.943 203.163 621.374 203.184 621.459 203.192Z" fill="white" stroke="white" stroke-width="8"/>
<path fill-rule="evenodd" clip-rule="evenodd" d="M619.454 248.083C618.695 248.597 617.66 247.76 616.916 246.996C615.205 245.238 612.168 232.248 613.284 222.646C614.804 209.562 619.808 202.47 622.782 202.883C625.839 207.751 623.85 219.745 621.773 232.273C620.887 237.617 619.988 243.057 619.454 248.083Z" fill="url(#paint0_linear_179_2)"/>
<path d="M642.104 207.797C642.18 207.837 642.551 208.057 642.878 209.097C643.211 210.157 643.382 211.758 643.21 213.897C642.866 218.158 641.223 223.75 638.212 229.538C635.201 235.327 631.565 239.882 628.274 242.61C626.621 243.979 625.212 244.758 624.152 245.094C623.113 245.423 622.72 245.245 622.644 245.206C622.569 245.167 622.197 244.947 621.871 243.907C621.538 242.846 621.366 241.245 621.539 239.106C621.883 234.846 623.525 229.254 626.537 223.465C629.548 217.676 633.184 213.121 636.475 210.394C638.127 209.025 639.537 208.246 640.596 207.91C641.635 207.58 642.029 207.758 642.104 207.797Z" fill="white" stroke="white" stroke-width="8"/>
<path fill-rule="evenodd" clip-rule="evenodd" d="M636.928 259.165C637.73 252.944 636.928 248.386 632.866 242.065C615.328 227.924 585.83 254.124 585.83 267.915C586.412 283.615 629.665 291.429 636.928 259.165ZM608.039 263.264C610.364 263.264 612.248 262.315 612.248 259.991C612.248 257.667 610.364 255.783 608.039 255.783C605.715 255.783 603.831 257.667 603.831 259.991C603.831 262.315 605.715 263.264 608.039 263.264Z" fill="white"/>
<path d="M653.549 268.901C645.188 268.299 639.081 272.917 633.01 277.507C626.219 282.642 619.473 287.743 609.669 285.465C615.461 292.359 629.305 293.567 639.153 288.425C645.384 285.181 648.062 279.658 650.546 274.532C651.51 272.544 652.446 270.614 653.549 268.901Z" fill="white"/>
<path d="M605.973 286.622C609.611 286.399 611.849 289.102 614.073 291.789C616.56 294.794 619.032 297.78 623.429 296.628C620.37 300.453 614.328 300.942 610.528 297.889C608.124 295.963 607.434 292.795 606.793 289.855C606.545 288.715 606.304 287.608 605.973 286.622Z" fill="white"/>
<path fill-rule="evenodd" clip-rule="evenodd" d="M625.35 248.125C624.463 248.357 623.766 247.222 623.319 246.254C622.292 244.027 623.758 230.767 628.01 222.085C633.803 210.256 640.884 205.237 643.551 206.618C644.811 212.226 638.939 222.872 632.806 233.991C630.189 238.735 627.528 243.564 625.35 248.125Z" fill="url(#paint1_linear_179_2)"/>
<path fill-rule="evenodd" clip-rule="evenodd" d="M587.466 225.393C586.229 223.519 588.683 221.421 590.342 222.933L591.557 224.04C591.09 224.656 589.603 225.708 587.466 225.393ZM589.603 228.631C590.683 228.625 593.194 228.252 594.597 226.81L601.853 233.423C599.038 236.346 596.35 236.611 594.696 236.346L589.603 228.631ZM597.629 240.788L600.238 244.741C601.564 246.748 604.349 247.14 606.177 245.576L607.383 244.545C609.211 242.981 609.255 240.169 607.477 238.548L605.351 236.611C604.8 237.732 602.486 240.138 597.629 240.788Z" fill="white"/>
<defs>
<linearGradient id="paint0_linear_179_2" x1="627.033" y1="273.079" x2="612.06" y2="189.445" gradientUnits="userSpaceOnUse">
<stop stop-color="#CDCED8"/>
<stop offset="1" stop-color="#8697FF" stop-opacity="0"/>
</linearGradient>
<linearGradient id="paint1_linear_179_2" x1="624.166" y1="274.218" x2="637.92" y2="190.375" gradientUnits="userSpaceOnUse">
<stop stop-color="#CDCED8"/>
<stop offset="1" stop-color="#8697FF" stop-opacity="0"/>
</linearGradient>
</defs>
</svg>
