<svg width="1200" height="676" viewBox="0 0 1200 676" fill="none" xmlns="http://www.w3.org/2000/svg">
<g clip-path="url(#clip0_168_504)">
<rect width="1200" height="675" transform="translate(0 0.34375)" fill="#6366F1"/>
<path d="M474.048 417.216C470.443 417.216 467.739 416.592 465.936 415.344C464.133 414.096 462.955 412.432 462.4 410.352C461.984 408.272 461.776 405.984 461.776 403.488V285.344C461.776 282.848 462.053 280.629 462.608 278.688C463.163 276.608 464.272 274.944 465.936 273.696C467.739 272.448 470.512 271.824 474.256 271.824H529.168C537.211 271.824 544.283 273.696 550.384 277.44C556.624 281.184 561.477 286.176 564.944 292.416C568.411 298.517 570.144 305.242 570.144 312.592C570.144 315.92 569.728 319.248 568.896 322.576C568.203 325.765 567.024 328.746 565.36 331.52C563.835 334.293 561.893 336.789 559.536 339.008C562.725 341.504 565.499 344.554 567.856 348.16C570.213 351.765 571.947 355.717 573.056 360.016C574.304 364.176 574.928 368.544 574.928 373.12C574.789 379.36 573.611 385.184 571.392 390.592C569.173 395.861 566.053 400.506 562.032 404.528C558.149 408.549 553.573 411.669 548.304 413.888C543.035 416.106 537.349 417.216 531.248 417.216H474.048ZM486.944 392.672H529.168C533.189 392.672 536.725 391.909 539.776 390.384C542.965 388.858 545.461 386.501 547.264 383.312C549.067 380.122 549.968 375.962 549.968 370.832C549.968 366.81 549.413 363.621 548.304 361.264C547.333 358.768 545.947 356.826 544.144 355.44C542.48 354.053 540.539 353.082 538.32 352.528C536.24 351.973 534.16 351.696 532.08 351.696C530 351.557 528.059 351.488 526.256 351.488H516.688C513.083 351.488 510.448 350.656 508.784 348.992C507.12 347.189 506.288 344.277 506.288 340.256C506.288 336.512 507.189 333.877 508.992 332.352C510.795 330.688 513.568 329.856 517.312 329.856H526.672C528.475 329.856 530.416 329.786 532.496 329.648C534.715 329.509 536.795 329.024 538.736 328.192C540.677 327.221 542.272 325.696 543.52 323.616C544.768 321.536 545.392 318.485 545.392 314.464C545.392 308.224 543.728 303.717 540.4 300.944C537.211 298.032 531.664 296.576 523.76 296.576H486.944V392.672ZM636.061 417.216C629.682 417.216 623.789 416.106 618.381 413.888C613.111 411.53 608.466 408.202 604.445 403.904C600.423 399.605 597.303 394.474 595.085 388.512C592.866 382.549 591.757 375.962 591.757 368.752V327.36C591.757 325.002 591.965 322.922 592.381 321.12C592.797 319.178 593.906 317.653 595.709 316.544C597.511 315.434 600.285 314.88 604.029 314.88C608.05 314.88 610.893 315.434 612.557 316.544C614.359 317.653 615.469 319.178 615.885 321.12C616.301 323.061 616.509 325.21 616.509 327.568V368.752C616.509 373.744 617.341 378.042 619.005 381.648C620.807 385.253 623.373 388.096 626.701 390.176C630.029 392.117 634.119 393.088 638.973 393.088C643.965 393.088 648.194 392.117 651.661 390.176C655.266 388.096 658.039 385.253 659.981 381.648C661.922 377.904 662.893 373.605 662.893 368.752V327.152C662.893 324.794 663.101 322.714 663.517 320.912C663.933 318.97 665.042 317.514 666.845 316.544C668.647 315.434 671.49 314.88 675.373 314.88C679.255 314.88 682.029 315.434 683.693 316.544C685.357 317.653 686.397 319.178 686.812 321.12C687.367 323.061 687.645 325.141 687.645 327.36V405.36C687.645 407.44 687.367 409.381 686.812 411.184C686.397 412.986 685.287 414.442 683.485 415.552C681.821 416.661 679.047 417.216 675.165 417.216C672.391 417.216 670.173 416.869 668.509 416.176C666.983 415.621 665.805 414.858 664.973 413.888C664.279 412.778 663.794 411.669 663.517 410.56C663.378 409.45 663.309 408.341 663.309 407.232L664.973 401.616C664.141 402.864 662.893 404.389 661.229 406.192C659.565 407.856 657.485 409.589 654.989 411.392C652.631 413.056 649.858 414.442 646.669 415.552C643.479 416.661 639.943 417.216 636.061 417.216ZM720.463 417.216C716.719 417.216 713.946 416.592 712.143 415.344C710.479 414.234 709.439 412.778 709.023 410.976C708.607 409.034 708.399 406.885 708.399 404.528V326.736C708.399 324.517 708.607 322.506 709.023 320.704C709.439 318.901 710.548 317.514 712.351 316.544C714.154 315.434 716.927 314.88 720.671 314.88C723.999 314.88 726.495 315.296 728.159 316.128C729.823 316.96 730.932 318 731.487 319.248C732.042 320.496 732.319 321.744 732.319 322.992C732.458 324.24 732.596 325.21 732.735 325.904L731.903 332.56C732.735 330.341 734.122 328.192 736.063 326.112C738.004 324.032 740.362 322.16 743.135 320.496C745.908 318.693 748.89 317.306 752.079 316.336C755.407 315.226 758.804 314.672 762.271 314.672C768.788 314.672 774.612 315.85 779.743 318.208C784.874 320.565 789.242 323.893 792.847 328.192C796.591 332.49 799.434 337.621 801.375 343.584C803.316 349.408 804.287 355.994 804.287 363.344V404.736C804.287 407.093 804.01 409.242 803.455 411.184C803.039 412.986 801.999 414.442 800.335 415.552C798.671 416.661 795.828 417.216 791.807 417.216C787.924 417.216 785.082 416.592 783.279 415.344C781.476 414.234 780.367 412.778 779.951 410.976C779.535 409.034 779.327 406.885 779.327 404.528V363.136C779.327 358.144 778.426 353.845 776.623 350.24C774.959 346.634 772.463 343.861 769.135 341.92C765.946 339.978 761.855 339.008 756.863 339.008C752.01 339.008 747.78 340.048 744.175 342.128C740.57 344.069 737.796 346.842 735.855 350.448C733.914 354.053 732.943 358.282 732.943 363.136V404.736C732.943 407.093 732.735 409.242 732.319 411.184C731.903 412.986 730.794 414.442 728.991 415.552C727.327 416.661 724.484 417.216 720.463 417.216ZM836.854 417.216C833.11 417.216 830.336 416.592 828.534 415.344C826.87 414.234 825.83 412.778 825.414 410.976C824.998 409.034 824.79 406.885 824.79 404.528V326.736C824.79 324.517 824.998 322.506 825.414 320.704C825.83 318.901 826.939 317.514 828.742 316.544C830.544 315.434 833.318 314.88 837.062 314.88C840.39 314.88 842.886 315.296 844.55 316.128C846.214 316.96 847.323 318 847.878 319.248C848.432 320.496 848.71 321.744 848.71 322.992C848.848 324.24 848.987 325.21 849.126 325.904L848.294 332.56C849.126 330.341 850.512 328.192 852.454 326.112C854.395 324.032 856.752 322.16 859.526 320.496C862.299 318.693 865.28 317.306 868.47 316.336C871.798 315.226 875.195 314.672 878.662 314.672C885.179 314.672 891.003 315.85 896.134 318.208C901.264 320.565 905.632 323.893 909.238 328.192C912.982 332.49 915.824 337.621 917.766 343.584C919.707 349.408 920.678 355.994 920.678 363.344V404.736C920.678 407.093 920.4 409.242 919.846 411.184C919.43 412.986 918.39 414.442 916.726 415.552C915.062 416.661 912.219 417.216 908.198 417.216C904.315 417.216 901.472 416.592 899.67 415.344C897.867 414.234 896.758 412.778 896.342 410.976C895.926 409.034 895.718 406.885 895.718 404.528V363.136C895.718 358.144 894.816 353.845 893.014 350.24C891.35 346.634 888.854 343.861 885.526 341.92C882.336 339.978 878.246 339.008 873.254 339.008C868.4 339.008 864.171 340.048 860.566 342.128C856.96 344.069 854.187 346.842 852.246 350.448C850.304 354.053 849.334 358.282 849.334 363.136V404.736C849.334 407.093 849.126 409.242 848.71 411.184C848.294 412.986 847.184 414.442 845.382 415.552C843.718 416.661 840.875 417.216 836.854 417.216ZM954.284 417.424C950.54 417.424 947.767 416.8 945.964 415.552C944.162 414.442 943.052 412.986 942.636 411.184C942.22 409.242 942.012 407.093 942.012 404.736V327.36C942.012 325.141 942.22 323.13 942.636 321.328C943.191 319.386 944.3 317.861 945.964 316.752C947.767 315.642 950.61 315.088 954.492 315.088C958.375 315.088 961.148 315.642 962.812 316.752C964.615 317.861 965.724 319.386 966.14 321.328C966.556 323.269 966.764 325.418 966.764 327.776V404.944C966.764 407.301 966.556 409.45 966.14 411.392C965.724 413.194 964.615 414.65 962.812 415.76C961.148 416.869 958.306 417.424 954.284 417.424ZM954.284 294.912C950.263 294.912 947.282 294.357 945.34 293.248C943.538 292 942.359 290.336 941.804 288.256C941.388 286.176 941.18 283.888 941.18 281.392C941.18 278.757 941.388 276.469 941.804 274.528C942.359 272.586 943.607 271.061 945.548 269.952C947.49 268.704 950.471 268.08 954.492 268.08C958.652 268.08 961.634 268.704 963.436 269.952C965.239 271.2 966.418 272.864 966.972 274.944C967.527 276.885 967.804 279.173 967.804 281.808C967.804 284.165 967.527 286.384 966.972 288.464C966.418 290.544 965.239 292.138 963.436 293.248C961.634 294.357 958.583 294.912 954.284 294.912Z" fill="white"/>
<path d="M325.933 228.754C327.8 228.948 329.834 230.049 331.903 232.604C333.986 235.176 335.891 238.987 337.397 243.929C340.403 253.797 341.581 267.399 340.03 282.338C338.479 297.276 334.534 310.347 329.565 319.386C327.076 323.914 324.429 327.252 321.862 329.342C319.313 331.418 317.095 332.077 315.229 331.883C313.362 331.689 311.327 330.589 309.258 328.033C307.176 325.461 305.27 321.651 303.765 316.708C300.758 306.841 299.581 293.238 301.132 278.3C302.682 263.362 306.628 250.291 311.597 241.251C314.086 236.724 316.733 233.386 319.3 231.296C321.849 229.22 324.067 228.561 325.933 228.754Z" fill="white" stroke="white" stroke-width="8"/>
<path fill-rule="evenodd" clip-rule="evenodd" d="M320.964 333.568C319.275 334.712 316.97 332.848 315.313 331.146C311.505 327.234 304.744 298.315 307.227 276.939C310.611 247.813 321.75 232.023 328.372 232.944C335.177 243.78 330.75 270.482 326.127 298.371C324.154 310.268 322.151 322.379 320.964 333.568Z" fill="url(#paint0_linear_168_504)"/>
<path d="M373.651 239.532C375.315 240.398 376.804 242.169 377.789 245.306C378.781 248.464 379.153 252.708 378.737 257.858C377.907 268.14 374.004 281.223 367.073 294.547C360.143 307.871 351.67 318.577 343.727 325.159C339.749 328.455 336.061 330.587 332.906 331.588C329.772 332.582 327.467 332.38 325.802 331.514C324.138 330.648 322.649 328.877 321.664 325.74C320.672 322.582 320.3 318.338 320.716 313.188C321.546 302.907 325.449 289.823 332.38 276.499C339.31 263.176 347.783 252.469 355.726 245.887C359.704 242.591 363.392 240.459 366.547 239.458C369.681 238.464 371.986 238.666 373.651 239.532Z" fill="white" stroke="white" stroke-width="8"/>
<path fill-rule="evenodd" clip-rule="evenodd" d="M359.863 358.238C361.649 344.39 359.863 334.241 350.82 320.17C311.776 288.69 246.108 347.017 246.108 377.718C247.403 412.669 343.693 430.064 359.863 358.238ZM295.551 367.363C300.725 367.363 304.919 365.251 304.919 360.077C304.919 354.903 300.725 350.708 295.551 350.708C290.377 350.708 286.183 354.903 286.183 360.077C286.183 365.251 290.377 367.363 295.551 367.363Z" fill="white"/>
<path d="M396.865 379.913C378.254 378.573 364.658 388.853 351.142 399.072C336.025 410.502 321.007 421.857 299.181 416.788C312.074 432.134 342.894 434.823 364.819 423.377C378.69 416.155 384.651 403.86 390.182 392.449C392.328 388.022 394.41 383.727 396.865 379.913Z" fill="white"/>
<path d="M290.952 419.363C299.052 418.866 304.032 424.883 308.983 430.865C314.521 437.556 320.023 444.202 329.812 441.637C323.002 450.152 309.551 451.241 301.092 444.446C295.739 440.157 294.203 433.106 292.778 426.561C292.225 424.022 291.688 421.559 290.952 419.363Z" fill="white"/>
<path fill-rule="evenodd" clip-rule="evenodd" d="M334.09 333.662C332.116 334.177 330.564 331.652 329.569 329.495C327.283 324.538 330.545 295.018 340.01 275.692C352.908 249.358 368.672 238.183 374.608 241.258C377.413 253.742 364.341 277.443 350.688 302.197C344.863 312.757 338.938 323.507 334.09 333.662Z" fill="url(#paint1_linear_168_504)"/>
<path fill-rule="evenodd" clip-rule="evenodd" d="M248.667 281.413C246.073 277.482 251.219 273.08 254.7 276.252L258.86 280.044C257.819 281.415 254.51 283.757 249.752 283.055L248.667 281.413ZM254.51 290.263C256.914 290.249 262.503 289.42 265.626 286.209L281.781 300.932C275.514 307.438 269.529 308.027 265.848 307.438L254.51 290.263ZM272.376 317.326L281.246 330.762C282.571 332.77 285.356 333.162 287.184 331.598L298.312 322.079C300.14 320.515 300.184 317.703 298.406 316.083L289.567 308.027C288.342 310.524 283.189 315.879 272.376 317.326Z" fill="white"/>
</g>
<defs>
<linearGradient id="paint0_linear_168_504" x1="337.836" y1="389.213" x2="304.503" y2="203.028" gradientUnits="userSpaceOnUse">
<stop stop-color="#CDCED8"/>
<stop offset="1" stop-color="#8697FF" stop-opacity="0"/>
</linearGradient>
<linearGradient id="paint1_linear_168_504" x1="331.453" y1="391.748" x2="362.074" y2="205.098" gradientUnits="userSpaceOnUse">
<stop stop-color="#CDCED8"/>
<stop offset="1" stop-color="#8697FF" stop-opacity="0"/>
</linearGradient>
<clipPath id="clip0_168_504">
<rect width="1200" height="675" fill="white" transform="translate(0 0.34375)"/>
</clipPath>
</defs>
</svg>
