<svg width="600" height="600" viewBox="0 0 600 600" fill="none" xmlns="http://www.w3.org/2000/svg">
<g clip-path="url(#clip0_141_186)">
<rect width="600" height="600" rx="300" fill="#6366F1"/>
<g filter="url(#filter0_d_141_186)">
<path d="M325.08 86.6511C329.927 87.1542 334.652 89.9816 339.035 95.3949C343.431 100.825 347.273 108.624 350.252 118.4C356.203 137.934 358.468 164.582 355.451 193.653C352.433 222.724 344.743 248.338 334.907 266.234C329.984 275.189 324.622 282.033 319.204 286.444C313.803 290.842 308.598 292.639 303.751 292.136C298.904 291.632 294.178 288.805 289.796 283.392C285.399 277.962 281.557 270.162 278.579 260.387C272.627 240.852 270.362 214.205 273.379 185.134C276.397 156.063 284.087 130.449 293.923 112.553C298.846 103.598 304.208 96.7537 309.626 92.3423C315.027 87.9446 320.233 86.148 325.08 86.6511Z" fill="white" stroke="white" stroke-width="8"/>
<path fill-rule="evenodd" clip-rule="evenodd" d="M315.151 291.707C311.905 293.905 307.477 290.324 304.293 287.054C296.977 279.537 283.985 223.972 288.757 182.9C295.26 126.936 316.662 96.5983 329.385 98.367C342.46 119.187 333.955 170.493 325.071 224.079C321.281 246.939 317.432 270.208 315.151 291.707Z" fill="url(#paint0_linear_141_186)"/>
<path d="M418.084 107.756C422.407 110.005 425.764 114.371 427.851 121.016C429.944 127.682 430.652 136.347 429.83 146.533C428.188 166.888 420.503 192.504 407.015 218.433C393.528 244.361 376.964 265.358 361.24 278.388C353.371 284.908 345.87 289.303 339.21 291.415C332.571 293.521 327.069 293.279 322.746 291.03C318.423 288.781 315.067 284.415 312.98 277.771C310.886 271.105 310.178 262.439 311 252.253C312.643 231.899 320.327 206.282 333.815 180.354C347.303 154.425 363.866 133.428 379.59 120.399C387.459 113.878 394.961 109.483 401.621 107.371C408.26 105.266 413.761 105.507 418.084 107.756Z" fill="white" stroke="white" stroke-width="8"/>
<path fill-rule="evenodd" clip-rule="evenodd" d="M389.891 339.107C393.323 312.5 389.891 293 372.516 265.964C297.498 205.478 171.323 317.548 171.323 376.536C173.811 443.692 358.823 477.114 389.891 339.107ZM266.323 356.641C276.264 356.641 284.323 352.582 284.323 342.641C284.323 332.7 276.264 324.641 266.323 324.641C256.382 324.641 248.323 332.7 248.323 342.641C248.323 352.582 256.382 356.641 266.323 356.641Z" fill="white"/>
<path d="M460.987 380.754C425.227 378.18 399.104 397.931 373.135 417.567C344.089 439.529 315.232 461.347 273.296 451.606C298.069 481.093 357.286 486.259 399.413 464.266C426.065 450.389 437.518 426.767 448.146 404.841C452.269 396.335 456.27 388.082 460.987 380.754Z" fill="white"/>
<path d="M257.483 456.554C273.046 455.599 282.616 467.16 292.129 478.654C302.77 491.509 313.341 504.281 332.15 499.352C319.066 515.713 293.22 517.805 276.967 504.748C266.682 496.508 263.731 482.96 260.992 470.385C259.93 465.506 258.899 460.773 257.483 456.554Z" fill="white"/>
<path fill-rule="evenodd" clip-rule="evenodd" d="M340.37 291.886C336.578 292.877 333.596 288.024 331.684 283.881C327.291 274.356 333.559 217.637 351.745 180.503C376.527 129.905 406.816 108.434 418.222 114.341C423.612 138.329 398.494 183.868 372.261 231.429C361.069 251.72 349.685 272.376 340.37 291.886Z" fill="url(#paint1_linear_141_186)"/>
<path fill-rule="evenodd" clip-rule="evenodd" d="M159.966 166.845C157.372 162.915 162.518 158.513 165.999 161.685L195.823 188.865C193.823 191.5 187.465 196 178.323 194.652L159.966 166.845ZM187.465 208.5C192.084 208.475 202.823 206.882 208.823 200.712L239.863 229C227.823 241.5 216.323 242.633 209.25 241.5L187.465 208.5ZM221.793 260.5L241.135 289.799C242.46 291.807 245.245 292.199 247.073 290.635L274.798 266.919C276.626 265.356 276.67 262.544 274.892 260.923L254.823 242.633C252.469 247.431 242.568 257.72 221.793 260.5Z" fill="white"/>
</g>
</g>
<defs>
<filter id="filter0_d_141_186" x="135.261" y="74.5684" width="349.727" height="478.692" filterUnits="userSpaceOnUse" color-interpolation-filters="sRGB">
<feFlood flood-opacity="0" result="BackgroundImageFix"/>
<feColorMatrix in="SourceAlpha" type="matrix" values="0 0 0 0 0 0 0 0 0 0 0 0 0 0 0 0 0 0 127 0" result="hardAlpha"/>
<feOffset dy="16"/>
<feGaussianBlur stdDeviation="12"/>
<feComposite in2="hardAlpha" operator="out"/>
<feColorMatrix type="matrix" values="0 0 0 0 0 0 0 0 0 0 0 0 0 0 0 0 0 0 0.25 0"/>
<feBlend mode="normal" in2="BackgroundImageFix" result="effect1_dropShadow_141_186"/>
<feBlend mode="normal" in="SourceGraphic" in2="effect1_dropShadow_141_186" result="shape"/>
</filter>
<linearGradient id="paint0_linear_141_186" x1="347.568" y1="398.624" x2="283.524" y2="40.8868" gradientUnits="userSpaceOnUse">
<stop stop-color="#CDCED8"/>
<stop offset="1" stop-color="#8697FF" stop-opacity="0"/>
</linearGradient>
<linearGradient id="paint1_linear_141_186" x1="335.304" y1="403.495" x2="394.138" y2="44.8636" gradientUnits="userSpaceOnUse">
<stop stop-color="#CDCED8"/>
<stop offset="1" stop-color="#8697FF" stop-opacity="0"/>
</linearGradient>
<clipPath id="clip0_141_186">
<rect width="600" height="600" fill="white"/>
</clipPath>
</defs>
</svg>
