<svg width="339" height="458" viewBox="0 0 339 458" fill="none" xmlns="http://www.w3.org/2000/svg">
<g clip-path="url(#clip0_242_97)">
<path d="M184.092 9.62911C189.117 10.1506 194.002 13.0807 198.522 18.6638C203.056 24.2639 207.014 32.3004 210.08 42.3633C216.206 62.4725 218.536 89.8959 215.431 119.807C212.327 149.718 204.414 176.078 194.288 194.5C189.221 203.719 183.697 210.772 178.11 215.321C172.539 219.857 167.156 221.721 162.132 221.199C157.108 220.678 152.222 217.748 147.702 212.165C143.168 206.565 139.211 198.528 136.145 188.465C130.018 168.356 127.688 140.933 130.793 111.022C133.898 81.1106 141.81 54.7504 151.936 36.3282C157.003 27.1095 162.527 20.057 168.114 15.5075C173.685 10.9718 179.068 9.10761 184.092 9.62911Z" fill="url(#paint0_linear_242_97)" stroke="url(#paint1_linear_242_97)" stroke-width="8"/>
<path d="M173.438 220.895C173.439 220.897 173.44 220.899 173.44 220.9C170.149 222.596 165.838 219.08 162.702 215.86L163.06 215.511C163.06 215.511 163.06 215.511 163.06 215.511C162.183 214.61 161.18 212.939 160.109 210.564C159.044 208.203 157.931 205.191 156.817 201.65C154.591 194.57 152.373 185.403 150.542 175.152C146.879 154.645 144.773 129.849 147.219 108.794C150.558 80.0616 157.718 57.9351 165.657 43.2346C169.627 35.8825 173.781 30.4068 177.732 26.8889C181.597 23.4476 185.198 21.9382 188.21 22.2594C191.439 27.5029 193.364 34.6574 194.277 43.3307C195.201 52.1093 195.084 62.4028 194.261 73.7669C192.615 96.4973 188.148 123.443 183.579 151.007C179.695 174.431 175.748 198.29 173.397 220.353L173.869 220.646C173.728 220.741 173.586 220.825 173.441 220.9C173.44 220.898 173.439 220.897 173.438 220.895ZM173.438 220.895C173.429 220.882 173.422 220.871 173.417 220.862C173.406 220.836 173.39 220.792 173.385 220.773C173.381 220.759 173.376 220.734 173.375 220.723C173.374 220.72 173.374 220.716 173.373 220.712C173.372 220.705 173.371 220.697 173.371 220.692L173.369 220.672L173.369 220.657C173.369 220.654 173.369 220.651 173.369 220.649C173.369 220.644 173.369 220.641 173.369 220.638C173.369 220.628 173.369 220.621 173.37 220.617L173.37 220.612M173.438 220.895C173.42 220.862 173.4 220.818 173.393 220.797C173.388 220.779 173.38 220.748 173.377 220.735C173.377 220.73 173.376 220.724 173.375 220.718C173.374 220.71 173.373 220.702 173.372 220.698C173.371 220.691 173.37 220.679 173.37 220.673L173.369 220.657C173.369 220.647 173.369 220.64 173.369 220.635L173.37 220.621L173.37 220.612M173.37 220.612L173.37 220.606L173.371 220.6L173.37 220.612ZM173.768 220.164C173.814 220.16 173.868 220.159 173.92 220.163C173.92 220.162 173.921 220.161 173.921 220.16C173.889 220.153 173.859 220.149 173.834 220.148C173.814 220.151 173.792 220.157 173.768 220.164Z" fill="url(#paint2_linear_242_97)" stroke="url(#paint3_linear_242_97)"/>
<path d="M279.79 31.3477C284.271 33.6788 287.738 38.199 289.891 45.0525C292.05 51.9268 292.778 60.8552 291.932 71.3407C290.241 92.2943 282.332 118.656 268.454 145.334C254.576 172.012 237.532 193.621 221.345 207.034C213.245 213.746 205.517 218.275 198.648 220.453C191.801 222.625 186.109 222.381 181.628 220.05C177.147 217.719 173.68 213.199 171.527 206.345C169.368 199.471 168.64 190.542 169.486 180.057C171.177 159.103 179.086 132.742 192.964 106.064C206.842 79.3859 223.887 57.777 240.073 44.364C248.173 37.6519 255.902 33.1223 262.77 30.9441C269.617 28.7725 275.309 29.0167 279.79 31.3477Z" fill="url(#paint4_linear_242_97)" stroke="url(#paint5_linear_242_97)" stroke-width="8"/>
<mask id="path-4-inside-1_242_97" fill="white">
<path fill-rule="evenodd" clip-rule="evenodd" d="M250.741 269.397C254.27 242.031 250.741 221.975 232.87 194.168C155.713 131.957 25.9404 247.223 25.9404 307.893C28.4994 376.964 218.787 411.338 250.741 269.397ZM123.648 287.43C133.873 287.43 142.161 283.255 142.161 273.031C142.161 262.806 133.873 254.518 123.648 254.518C113.424 254.518 105.135 262.806 105.135 273.031C105.135 283.255 113.424 287.43 123.648 287.43Z"/>
</mask>
<path fill-rule="evenodd" clip-rule="evenodd" d="M250.741 269.397C254.27 242.031 250.741 221.975 232.87 194.168C155.713 131.957 25.9404 247.223 25.9404 307.893C28.4994 376.964 218.787 411.338 250.741 269.397ZM123.648 287.43C133.873 287.43 142.161 283.255 142.161 273.031C142.161 262.806 133.873 254.518 123.648 254.518C113.424 254.518 105.135 262.806 105.135 273.031C105.135 283.255 113.424 287.43 123.648 287.43Z" fill="url(#paint6_linear_242_97)"/>
<path d="M232.87 194.168L233.711 193.627L233.624 193.491L233.498 193.39L232.87 194.168ZM250.741 269.397L251.716 269.616L251.726 269.571L251.732 269.525L250.741 269.397ZM25.9404 307.893H24.9404V307.911L24.9411 307.93L25.9404 307.893ZM232.029 194.709C240.921 208.545 246.212 220.402 248.855 232.167C251.497 243.93 251.504 255.661 249.749 269.269L251.732 269.525C253.507 255.766 253.514 243.787 250.806 231.729C248.098 219.673 242.69 207.598 233.711 193.627L232.029 194.709ZM26.9404 307.893C26.9404 293.037 34.9082 274.667 48.2314 256.368C61.533 238.099 80.0814 220.027 101.034 205.777C143.017 177.224 194.201 164.274 232.242 194.947L233.498 193.39C194.383 161.851 142.101 175.429 99.909 204.123C78.7736 218.497 60.0565 236.729 46.6146 255.191C33.1942 273.624 24.9404 292.414 24.9404 307.893H26.9404ZM249.765 269.177C241.829 304.429 224.082 328.677 201.921 344.187C179.744 359.709 153.089 366.519 127.307 366.775C101.52 367.031 76.6748 360.729 58.1488 350.11C39.5984 339.477 27.5614 324.634 26.9397 307.856L24.9411 307.93C25.599 325.687 38.3075 341.042 57.1542 351.845C76.0253 362.662 101.229 369.034 127.327 368.774C153.432 368.515 180.5 361.621 203.068 345.826C225.653 330.019 243.675 305.335 251.716 269.616L249.765 269.177ZM141.161 273.031C141.161 277.829 139.239 281.116 136.169 283.243C133.048 285.406 128.647 286.43 123.648 286.43V288.43C128.874 288.43 133.73 287.367 137.309 284.887C140.94 282.37 143.161 278.457 143.161 273.031H141.161ZM123.648 255.518C133.32 255.518 141.161 263.359 141.161 273.031H143.161C143.161 262.254 134.425 253.518 123.648 253.518V255.518ZM106.135 273.031C106.135 263.359 113.976 255.518 123.648 255.518V253.518C112.871 253.518 104.135 262.254 104.135 273.031H106.135ZM123.648 286.43C118.649 286.43 114.248 285.406 111.127 283.243C108.057 281.116 106.135 277.829 106.135 273.031H104.135C104.135 278.457 106.357 282.37 109.988 284.887C113.567 287.367 118.423 288.43 123.648 288.43V286.43Z" fill="url(#paint7_linear_242_97)" mask="url(#path-4-inside-1_242_97)"/>
<path d="M260.305 397.681L260.304 397.681C238.734 408.942 212.774 413.255 189.033 410.971C165.891 408.745 144.931 400.261 132.192 385.923C174.753 395.146 204.263 372.833 233.754 350.534L233.809 350.492C260.338 330.434 286.854 310.408 322.99 312.674C318.316 320.058 314.315 328.313 310.211 336.78L310.208 336.787C299.27 359.352 287.551 383.494 260.305 397.681Z" fill="url(#paint8_linear_242_97)" stroke="url(#paint9_linear_242_97)"/>
<path d="M134.911 439.37L134.912 439.37C151.035 452.323 176.454 450.589 190.002 435.051C180.88 437.054 173.623 434.994 167.348 430.842C160.781 426.498 155.287 419.861 149.836 413.275L149.808 413.241C140.12 401.536 130.57 390.05 115.24 390.658C116.6 394.864 117.616 399.529 118.654 404.299L118.657 404.311C121.482 417.286 124.495 431.025 134.911 439.37Z" fill="url(#paint10_linear_242_97)" stroke="url(#paint11_linear_242_97)"/>
<path d="M199.32 220.922C199.32 220.924 199.32 220.925 199.321 220.927C195.652 221.429 192.759 216.678 190.876 212.596L191.33 212.387C191.33 212.386 191.33 212.386 191.33 212.386C190.803 211.245 190.415 209.335 190.196 206.739C189.979 204.158 189.933 200.947 190.063 197.238C190.323 189.82 191.287 180.438 192.977 170.163C196.358 149.607 202.635 125.527 211.958 106.49C224.681 80.5135 238.806 62.0382 251.19 50.8235C257.383 45.2147 263.125 41.4365 268.022 39.4364C272.813 37.4798 276.711 37.2568 279.444 38.5633C280.741 44.5831 280.171 51.9701 278.142 60.4519C276.087 69.0366 272.547 78.7028 267.984 89.143C258.857 110.026 245.666 133.942 232.172 158.407C220.704 179.199 209.032 200.378 199.462 220.397L199.81 220.83C199.645 220.873 199.483 220.905 199.321 220.927C199.321 220.925 199.32 220.924 199.32 220.922ZM199.32 220.922C199.316 220.907 199.313 220.893 199.312 220.883C199.31 220.856 199.309 220.808 199.311 220.788C199.312 220.774 199.316 220.749 199.318 220.738C199.318 220.735 199.319 220.731 199.32 220.727C199.322 220.72 199.323 220.712 199.324 220.708L199.33 220.688L199.334 220.674C199.335 220.671 199.336 220.669 199.337 220.666C199.338 220.662 199.34 220.659 199.341 220.656C199.344 220.647 199.347 220.64 199.348 220.636L199.351 220.632M199.32 220.922C199.314 220.885 199.31 220.836 199.31 220.814C199.311 220.796 199.315 220.764 199.317 220.75C199.317 220.746 199.318 220.74 199.32 220.734C199.321 220.726 199.323 220.718 199.324 220.713C199.325 220.707 199.328 220.695 199.33 220.69L199.335 220.674C199.338 220.665 199.34 220.658 199.342 220.653L199.347 220.64L199.351 220.632M199.351 220.632L199.353 220.626L199.355 220.621L199.351 220.632ZM199.876 220.342C199.92 220.354 199.971 220.371 200.019 220.392C200.019 220.391 200.02 220.39 200.02 220.39C199.993 220.373 199.966 220.359 199.943 220.349C199.923 220.346 199.9 220.343 199.876 220.342Z" fill="url(#paint12_linear_242_97)" stroke="url(#paint13_linear_242_97)"/>
<path fill-rule="evenodd" clip-rule="evenodd" d="M25.2804 105.079C23.3996 101.312 27.8662 97.5699 31.2453 100.082L51.1395 114.869C49.0823 117.579 42.5428 122.208 33.1403 120.821L25.2804 105.079ZM42.5428 135.064C47.2939 135.038 58.3389 133.4 64.51 127.054L96.4352 156.149C84.0517 169.005 72.2238 170.171 64.9491 169.005L42.5428 135.064ZM77.8497 188.547L97.8143 218.789C99.1397 220.797 101.925 221.189 103.753 219.625L132.464 195.065C134.293 193.501 134.337 190.689 132.559 189.069L111.822 170.171C109.401 175.105 99.2179 185.688 77.8497 188.547Z" fill="url(#paint14_linear_242_97)"/>
</g>
<defs>
<linearGradient id="paint0_linear_242_97" x1="126.814" y1="110.609" x2="219.41" y2="120.22" gradientUnits="userSpaceOnUse">
<stop offset="1" stop-color="#6366F1"/>
</linearGradient>
<linearGradient id="paint1_linear_242_97" x1="126.814" y1="110.609" x2="219.41" y2="120.22" gradientUnits="userSpaceOnUse">
<stop offset="1" stop-color="#6366F1"/>
</linearGradient>
<linearGradient id="paint2_linear_242_97" x1="184.148" y1="219.149" x2="141.353" y2="-37.3295" gradientUnits="userSpaceOnUse">
<stop offset="0.58" stop-color="#D5E3FE"/>
<stop offset="1" stop-color="white" stop-opacity="0"/>
</linearGradient>
<linearGradient id="paint3_linear_242_97" x1="133.106" y1="91.4762" x2="220.831" y2="148.881" gradientUnits="userSpaceOnUse">
<stop offset="1" stop-color="#6366F1"/>
</linearGradient>
<linearGradient id="paint4_linear_242_97" x1="189.415" y1="104.218" x2="272.003" y2="147.18" gradientUnits="userSpaceOnUse">
<stop offset="1" stop-color="#6366F1"/>
</linearGradient>
<linearGradient id="paint5_linear_242_97" x1="189.415" y1="104.218" x2="272.003" y2="147.18" gradientUnits="userSpaceOnUse">
<stop offset="1" stop-color="#6366F1"/>
</linearGradient>
<linearGradient id="paint6_linear_242_97" x1="138.954" y1="176.281" x2="138.954" y2="367.782" gradientUnits="userSpaceOnUse">
<stop offset="1" stop-color="#6366F1"/>
</linearGradient>
<linearGradient id="paint7_linear_242_97" x1="138.954" y1="176.281" x2="138.954" y2="367.782" gradientUnits="userSpaceOnUse">
<stop offset="1" stop-color="#6366F1"/>
</linearGradient>
<linearGradient id="paint8_linear_242_97" x1="330.742" y1="349.171" x2="131.053" y2="386.343" gradientUnits="userSpaceOnUse">
<stop offset="1" stop-color="#6366F1"/>
</linearGradient>
<linearGradient id="paint9_linear_242_97" x1="330.742" y1="349.171" x2="131.053" y2="386.343" gradientUnits="userSpaceOnUse">
<stop offset="1" stop-color="#6366F1"/>
</linearGradient>
<linearGradient id="paint10_linear_242_97" x1="108.536" y1="411.028" x2="191.153" y2="434.91" gradientUnits="userSpaceOnUse">
<stop offset="1" stop-color="#6366F1"/>
</linearGradient>
<linearGradient id="paint11_linear_242_97" x1="108.536" y1="411.028" x2="191.153" y2="434.91" gradientUnits="userSpaceOnUse">
<stop offset="1" stop-color="#6366F1"/>
</linearGradient>
<linearGradient id="paint12_linear_242_97" x1="210" y1="222.845" x2="255.124" y2="-33.2346" gradientUnits="userSpaceOnUse">
<stop offset="0.58" stop-color="#D5E3FE"/>
<stop offset="1" stop-color="white" stop-opacity="0"/>
</linearGradient>
<linearGradient id="paint13_linear_242_97" x1="204.423" y1="85.4599" x2="268.003" y2="168.818" gradientUnits="userSpaceOnUse">
<stop offset="1" stop-color="#6366F1"/>
</linearGradient>
<linearGradient id="paint14_linear_242_97" x1="17.7984" y1="90.0776" x2="118.109" y2="207.345" gradientUnits="userSpaceOnUse">
<stop offset="1" stop-color="#6366F1"/>
</linearGradient>
<clipPath id="clip0_242_97">
<rect width="338.486" height="456.499" fill="white" transform="translate(0 0.844727)"/>
</clipPath>
</defs>
</svg>
