<svg width="600" height="600" viewBox="0 0 600 600" fill="none" xmlns="http://www.w3.org/2000/svg">
<g clip-path="url(#clip0_141_155)">
<rect width="600" height="600" rx="64" fill="#6366F1"/>
<g filter="url(#filter0_d_141_155)">
<path d="M326.756 86.6511C331.603 87.1542 336.329 89.9816 340.712 95.3949C345.108 100.825 348.95 108.624 351.928 118.4C357.88 137.934 360.145 164.582 357.128 193.653C354.11 222.724 346.42 248.338 336.584 266.234C331.661 275.189 326.299 282.033 320.881 286.444C315.48 290.842 310.274 292.639 305.428 292.136C300.581 291.632 295.855 288.805 291.472 283.392C287.076 277.962 283.234 270.162 280.255 260.387C274.304 240.852 272.039 214.205 275.056 185.134C278.074 156.063 285.764 130.449 295.6 112.553C300.523 103.598 305.885 96.7537 311.303 92.3423C316.704 87.9446 321.909 86.148 326.756 86.6511Z" fill="white" stroke="white" stroke-width="8"/>
<path fill-rule="evenodd" clip-rule="evenodd" d="M316.828 291.707C313.582 293.905 309.154 290.324 305.97 287.054C298.654 279.537 285.663 223.972 290.434 182.9C296.937 126.936 318.339 96.5983 331.062 98.367C344.138 119.187 335.632 170.493 326.748 224.079C322.958 246.939 319.109 270.208 316.828 291.707Z" fill="url(#paint0_linear_141_155)"/>
<path d="M419.761 107.756C424.084 110.005 427.44 114.371 429.527 121.016C431.621 127.682 432.329 136.347 431.507 146.533C429.864 166.888 422.18 192.504 408.692 218.433C395.204 244.361 378.641 265.358 362.917 278.388C355.048 284.908 347.546 289.303 340.886 291.415C334.247 293.521 328.746 293.279 324.423 291.03C320.1 288.781 316.744 284.415 314.656 277.771C312.563 271.105 311.855 262.439 312.677 252.253C314.319 231.899 322.004 206.282 335.492 180.354C348.98 154.425 365.543 133.428 381.267 120.399C389.136 113.878 396.637 109.483 403.297 107.371C409.936 105.266 415.438 105.507 419.761 107.756Z" fill="white" stroke="white" stroke-width="8"/>
<path fill-rule="evenodd" clip-rule="evenodd" d="M391.568 339.107C395 312.5 391.568 293 374.193 265.964C299.175 205.478 173 317.548 173 376.536C175.488 443.692 360.5 477.114 391.568 339.107ZM268 356.641C277.941 356.641 286 352.582 286 342.641C286 332.7 277.941 324.641 268 324.641C258.059 324.641 250 332.7 250 342.641C250 352.582 258.059 356.641 268 356.641Z" fill="white"/>
<path d="M462.665 380.754C426.904 378.18 400.781 397.931 374.812 417.567C345.766 439.529 316.909 461.347 274.974 451.606C299.746 481.093 358.963 486.259 401.091 464.266C427.743 450.389 439.195 426.767 449.823 404.841C453.946 396.335 457.947 388.082 462.665 380.754Z" fill="white"/>
<path d="M259.161 456.554C274.724 455.599 284.294 467.16 293.807 478.654C304.448 491.509 315.019 504.281 333.828 499.352C320.743 515.713 294.897 517.805 278.645 504.748C268.359 496.508 265.408 482.96 262.67 470.385C261.608 465.506 260.577 460.773 259.161 456.554Z" fill="white"/>
<path fill-rule="evenodd" clip-rule="evenodd" d="M342.047 291.886C338.255 292.877 335.273 288.024 333.361 283.881C328.968 274.356 335.236 217.637 353.423 180.503C378.204 129.905 408.493 108.434 419.899 114.341C425.289 138.329 400.171 183.868 373.938 231.429C362.746 251.72 351.363 272.376 342.047 291.886Z" fill="url(#paint1_linear_141_155)"/>
<path fill-rule="evenodd" clip-rule="evenodd" d="M161.643 166.845C159.049 162.915 164.195 158.513 167.676 161.685L197.5 188.865C195.5 191.5 189.142 196 180 194.652L161.643 166.845ZM189.142 208.5C193.761 208.475 204.5 206.882 210.5 200.712L241.54 229C229.5 241.5 218 242.633 210.927 241.5L189.142 208.5ZM223.47 260.5L242.812 289.799C244.137 291.807 246.922 292.199 248.75 290.635L276.475 266.919C278.303 265.356 278.347 262.544 276.569 260.923L256.5 242.633C254.147 247.431 244.246 257.72 223.47 260.5Z" fill="white"/>
</g>
</g>
<defs>
<filter id="filter0_d_141_155" x="136.938" y="74.5684" width="349.727" height="478.692" filterUnits="userSpaceOnUse" color-interpolation-filters="sRGB">
<feFlood flood-opacity="0" result="BackgroundImageFix"/>
<feColorMatrix in="SourceAlpha" type="matrix" values="0 0 0 0 0 0 0 0 0 0 0 0 0 0 0 0 0 0 127 0" result="hardAlpha"/>
<feOffset dy="16"/>
<feGaussianBlur stdDeviation="12"/>
<feComposite in2="hardAlpha" operator="out"/>
<feColorMatrix type="matrix" values="0 0 0 0 0 0 0 0 0 0 0 0 0 0 0 0 0 0 0.25 0"/>
<feBlend mode="normal" in2="BackgroundImageFix" result="effect1_dropShadow_141_155"/>
<feBlend mode="normal" in="SourceGraphic" in2="effect1_dropShadow_141_155" result="shape"/>
</filter>
<linearGradient id="paint0_linear_141_155" x1="349.246" y1="398.624" x2="285.201" y2="40.8868" gradientUnits="userSpaceOnUse">
<stop stop-color="#CDCED8"/>
<stop offset="1" stop-color="#8697FF" stop-opacity="0"/>
</linearGradient>
<linearGradient id="paint1_linear_141_155" x1="336.981" y1="403.495" x2="395.815" y2="44.8636" gradientUnits="userSpaceOnUse">
<stop stop-color="#CDCED8"/>
<stop offset="1" stop-color="#8697FF" stop-opacity="0"/>
</linearGradient>
<clipPath id="clip0_141_155">
<rect width="600" height="600" fill="white"/>
</clipPath>
</defs>
</svg>
